<svg xmlns="http://www.w3.org/2000/svg" width="479.889" height="431.935" viewBox="0 0 479.889 431.935"><defs><style>.a{fill:#e6e6e6;}.b{fill:#fff;}.c{fill:#70ad47;}.d{fill:#a0616a;}.e{fill:#2f2e41;}.f{fill:#575a88;}.g{fill:#3f3d56;}</style></defs><path class="a" d="M303.634,286.831a3.686,3.686,0,0,0-2.553,4.538l61.552,219.824a3.686,3.686,0,0,0,4.538,2.553l226.914-63.538a3.686,3.686,0,0,0,2.553-4.538L535.085,225.846a3.686,3.686,0,0,0-4.538-2.553Z" transform="translate(-300.944 -187.899)"/><path class="b" d="M372.614,505.956l216.235-60.547L530.286,236.264,314.052,296.811Z" transform="translate(-303.535 -190.49)"/><path class="a" d="M349.283,339.717c-1.443.4-2.037,2.8-1.326,5.342s2.464,4.28,3.907,3.877l98.621-27.614c1.443-.4,2.037-2.8,1.326-5.342s-2.464-4.28-3.907-3.877Z" transform="translate(-310.178 -205.469)"/><path class="a" d="M359.181,375.069c-1.443.4-2.037,2.8-1.326,5.342s2.464,4.28,3.907,3.877l98.621-27.615c1.443-.4,2.038-2.8,1.326-5.342s-2.464-4.28-3.907-3.877Z" transform="translate(-312.134 -212.456)"/><path class="a" d="M368.966,410.013c-1.443.4-2.037,2.8-1.326,5.342s2.464,4.28,3.907,3.877l98.621-27.614c1.443-.4,2.037-2.8,1.326-5.342s-2.464-4.28-3.907-3.877Z" transform="translate(-314.068 -219.363)"/><path class="a" d="M378.865,445.365c-1.443.4-2.037,2.8-1.326,5.342s2.464,4.28,3.907,3.877l98.621-27.615c1.443-.4,2.037-2.8,1.326-5.342s-2.464-4.281-3.907-3.877Z" transform="translate(-316.025 -226.351)"/><path class="a" d="M534.118,293.741a4.786,4.786,0,1,0,2.581,9.218l18.437-5.162a4.786,4.786,0,1,0-2.581-9.218Z" transform="translate(-346.343 -200.795)"/><path class="a" d="M543.826,328.408a4.786,4.786,0,0,0,2.581,9.218l18.437-5.162a4.786,4.786,0,1,0-2.581-9.218Z" transform="translate(-348.261 -207.648)"/><path class="a" d="M553.532,363.075a4.786,4.786,0,0,0,2.581,9.218l18.437-5.162a4.786,4.786,0,0,0-2.581-9.218Z" transform="translate(-350.18 -214.5)"/><path class="a" d="M563.24,397.741a4.786,4.786,0,0,0,2.581,9.218l18.437-5.162a4.786,4.786,0,0,0-2.581-9.218Z" transform="translate(-352.099 -221.352)"/><path class="c" d="M572.277,457.469a6.1,6.1,0,0,0,3.289,11.746l23.492-6.578a6.1,6.1,0,0,0-3.289-11.746h0Z" transform="translate(-353.695 -232.868)"/><rect class="a" width="180.527" height="1.605" transform="matrix(0.963, -0.27, 0.27, 0.963, 68.92, 249.554)"/><path class="d" d="M511.93,492.824l-13.942,3.371-19.636-52.173,20.578-4.975Z" transform="translate(-94.551 -84.191)"/><path class="e" d="M773.644,710.538l-.094-.39a17.839,17.839,0,0,1,13.133-21.507l27.278-6.595,4.281,17.71Z" transform="translate(-394.261 -278.603)"/><path class="d" d="M438.061,504.28H423.718l-6.824-55.326h21.17Z" transform="translate(-82.403 -86.149)"/><path class="e" d="M737.248,712.965l-45.883,0v-.4a17.818,17.818,0,0,1,17.818-17.818h28.066Z" transform="translate(-378.115 -281.113)"/><path class="f" d="M714.393,629.915,700.466,463.934l57.653-10.627.228-.041,16.875,10.848L769.348,525.2l27.042,95.237-23.35,6.145-27.086-88.327-6.2-26.859-3.177,34.9,2.358,86.073Z" transform="translate(-379.914 -233.382)"/><path class="c" d="M698.2,432.374l-.153-.193,19.922-150,.026-.2.14-.141c.294-.294,7.274-7.191,14.453-7.191,1.038,0,2.025-.026,2.972-.05,5.494-.143,9.834-.257,14.992,4.9,5.255,5.255,22.4,24.443,22.4,50.723,0,25.437,2.316,104.487,2.34,105.282l.033,1.116-.936-.609c-.231-.149-23.292-14.833-42.634-1.183-6.044,4.266-11.474,5.762-16.117,5.762C704.837,440.593,698.3,432.492,698.2,432.374Z" transform="translate(-379.437 -198.059)"/><circle class="d" cx="28.736" cy="28.736" r="28.736" transform="translate(311.106 27.567) rotate(-28.663)"/><path class="d" d="M677.76,497.509a11.765,11.765,0,0,0,.683-18.027l16.319-38.493-21.367,3.932-12.221,35.951a11.829,11.829,0,0,0,16.587,16.637Z" transform="translate(-371.644 -230.956)"/><path class="c" d="M662.824,436.871l5.255-11.094a2.161,2.161,0,0,1-.776-.8c-4.91-8.509,24.746-79.169,26.723-83.856-.3-2.549-3.415-29.562-1.138-38.667,2.68-10.718,8.182-15.714,18.4-16.7,11.266-1.058,14.306,14.241,14.335,14.4l.01,39.331L712.7,384.748,683.213,444.9Z" transform="translate(-372.474 -200.26)"/><path class="e" d="M733.164,229.678c-3.445.448-6.043-3.076-7.248-6.334s-2.123-7.051-5.118-8.811c-4.092-2.4-9.327.487-14.006-.306-5.284-.9-8.72-6.5-8.989-11.849s1.861-10.5,3.951-15.436l.73,6.133a12.163,12.163,0,0,1,5.315-10.631l-.94,9a9.552,9.552,0,0,1,10.989-7.9L717.7,188.9c6.1-.726,12.26-1.452,18.381-.9s12.285,2.49,16.925,6.521c6.94,6.03,9.475,15.96,8.624,25.114S757,237.391,753.059,245.7c-.991,2.09-2.362,4.449-4.659,4.715-2.065.239-3.954-1.487-4.6-3.463a12.553,12.553,0,0,1,.056-6.167c.581-3.086,1.313-6.24.767-9.331s-2.77-6.147-5.887-6.526-6.306,3.184-4.808,5.943Z" transform="translate(-379.383 -179.852)"/><path class="g" d="M546.785,534.676H339.991v-1.69h207.1Z" transform="translate(-67.202 -102.759)"/></svg>