<svg xmlns="http://www.w3.org/2000/svg" xmlns:xlink="http://www.w3.org/1999/xlink" width="539" height="539" viewBox="0 0 539 539"><defs><style>.a{opacity:0.773;fill:url(#a);}.b{opacity:0.5;}.c{fill:url(#b);}.d{fill:#f5f5f5;}.e{fill:#3dbb02;}.f{fill:#333;}.g{opacity:0.1;}.h{fill:#be7c5e;}.i{fill:#50812e;}.j{fill:#f55f44;}.k{fill:#fda57d;}.l{fill:#72351c;}.m{fill:#fdb797;}.n,.p{fill:none;stroke:#333;stroke-width:2px;}.n{stroke-miterlimit:10;}.o{fill:#858585;}.p{stroke-linecap:round;stroke-linejoin:round;}.q{fill:#fdd835;}.r{fill:#70ad47;}</style><linearGradient id="a" x1="0.5" x2="0.5" y2="1" gradientUnits="objectBoundingBox"><stop offset="0" stop-color="#baceb2"/><stop offset="1" stop-color="#95d868"/></linearGradient><linearGradient id="b" x1="0.5" y1="1" x2="0.5" gradientUnits="objectBoundingBox"><stop offset="0" stop-color="gray" stop-opacity="0.251"/><stop offset="0.54" stop-color="gray" stop-opacity="0.122"/><stop offset="1" stop-color="gray" stop-opacity="0.102"/></linearGradient></defs><g transform="translate(-1290 -199)"><circle class="a" cx="269.5" cy="269.5" r="269.5" transform="translate(1290 199)"/><g transform="translate(1346.282 257.823)"><g class="b" transform="translate(0.453 3.383)"><circle class="c" cx="63.242" cy="63.242" r="63.242"/></g><circle class="d" cx="61.905" cy="61.905" r="61.905" transform="translate(1.79 4.377)"/><path class="e" d="M296.727,287.552a61.616,61.616,0,0,0,34.03-10.183c-2.281-12.464-10.963-13.179-10.963-13.179H271.93s-8.186.671-10.75,12.142A61.621,61.621,0,0,0,296.727,287.552Z" transform="translate(-232.858 -159.191)"/><circle class="f" cx="27.444" cy="27.444" r="27.444" transform="translate(35.776 37.474)"/><path class="g" d="M98.18,164.57h19.149v15.318a9.572,9.572,0,0,1-9.572,9.572h0a9.572,9.572,0,0,1-9.572-9.572V164.57Z" transform="translate(-44.603 -74.763)"/><path class="h" d="M100.013,163.27h15.493a1.828,1.828,0,0,1,1.828,1.828v13.49a9.572,9.572,0,0,1-9.572,9.572h0a9.572,9.572,0,0,1-9.572-9.572V165.1a1.828,1.828,0,0,1,1.823-1.828Z" transform="translate(-44.607 -74.173)"/><path class="g" d="M307.53,247.687a27.558,27.558,0,0,0,19.149.055V245.39H307.53Z" transform="translate(-253.914 -150.65)"/><circle class="h" cx="27.444" cy="27.444" r="27.444" transform="translate(35.776 43.433)"/><path class="f" d="M273.555,152.363c.322-1.184.726-2.488,1.79-3.105a5.1,5.1,0,0,1,2.854-.366c7.585.415,15.105-1.315,22.483-3.121,4.218-1.031,8.731-2.287,11.46-5.686s-.829-14.085-4.982-15.345c-2.729-.835-5.894.72-8.48-.5a16.466,16.466,0,0,1-2.99-2.363c-2.035-1.637-4.649-2.3-7.181-2.92-2.958-.731-6.156-1.446-8.966-.273-2.183.906-3.776,2.821-5.844,3.956-3.935,2.183-8.731,1.168-13.239,1.157-1.523,0-3.34.306-3.945,1.7-.409.95-.082,2.03-.038,3.061.131,3.274-2.57,5.823-4.835,8.186s-4.4,5.735-2.974,8.671c.546,1.119,1.544,1.965,2.112,3.072.977,1.921.486,4.24.84,6.363a16.01,16.01,0,0,0,1.784,4.584c1.681,3.274,10.123,20.9,14,16.42,1.877-2.183,2.183-8.491,2.941-11.329Q271.918,158.409,273.555,152.363Z" transform="translate(-226.962 -92.805)"/><ellipse class="h" cx="2.554" cy="4.786" rx="2.554" ry="4.786" transform="translate(41.141 65.092)"/><g class="b" transform="translate(146.898 141.027)"><circle class="c" cx="63.242" cy="63.242" r="63.242"/></g><circle class="d" cx="61.905" cy="61.905" r="61.905" transform="translate(148.355 141.96)"/><path class="i" d="M565.083,539.8a61.615,61.615,0,0,0,34.008-10.183c-2.281-12.464-10.963-13.179-10.963-13.179H540.28s-8.186.671-10.75,12.142A61.62,61.62,0,0,0,565.083,539.8Z" transform="translate(-354.768 -273.787)"/><circle class="j" cx="29.883" cy="29.883" r="29.883" transform="translate(179.777 172.677)"/><path class="g" d="M366.53,416.8h19.149v15.318a9.572,9.572,0,0,1-9.572,9.572h0a9.572,9.572,0,0,1-9.572-9.572V416.8Z" transform="translate(-166.513 -189.35)"/><path class="k" d="M368.363,415.5h15.493a1.828,1.828,0,0,1,1.828,1.828v13.49a9.572,9.572,0,0,1-9.572,9.572h0a9.572,9.572,0,0,1-9.572-9.572v-13.49a1.828,1.828,0,0,1,1.828-1.828Z" transform="translate(-166.517 -188.76)"/><path class="g" d="M575.88,499.917a27.558,27.558,0,0,0,19.149.055V497.62H575.88Z" transform="translate(-375.824 -265.237)"/><circle class="k" cx="27.444" cy="27.444" r="27.444" transform="translate(182.216 181.076)"/><circle class="j" cx="11.045" cy="11.045" r="11.045" transform="translate(198.577 161.119)"/><circle class="j" cx="7.252" cy="7.252" r="7.252" transform="translate(202.369 154.036)"/><path class="j" d="M578.843,386.613a11.045,11.045,0,0,1-5.757-14.123c-.076.153-.153.311-.224.469A11.047,11.047,0,0,0,593.021,382c.071-.158.136-.317.2-.48a11.045,11.045,0,0,1-14.379,5.091Z" transform="translate(-374.013 -208.391)"/><path class="g" d="M557.67,402.385s11.564,23.465,44.2,9.823l-7.6-11.913-13.463-4.835Z" transform="translate(-367.552 -218.826)"/><path class="j" d="M557.67,401.745s11.564,23.465,44.2,9.823l-7.6-11.913-13.463-4.835Z" transform="translate(-367.552 -218.535)"/><path class="f" d="M574,391.5a136.337,136.337,0,0,1,21.381,0S579.588,392.969,574,391.5Z" transform="translate(-374.97 -216.837)"/><path class="j" d="M595.087,353.236a7.269,7.269,0,0,0-1.637.126h.42a7.247,7.247,0,0,1,1.091,14.368,7.247,7.247,0,1,0,.131-14.494Z" transform="translate(-383.806 -199.642)"/><ellipse class="k" cx="2.554" cy="4.786" rx="2.554" ry="4.786" transform="translate(179.657 203.706)"/><ellipse class="k" cx="2.554" cy="4.786" rx="2.554" ry="4.786" transform="translate(234.55 203.706)"/><path class="j" d="M345.22,334.7l5.353-2.761,1.206,4.426L348.5,338.6Z" transform="translate(-156.832 -150.799)"/><g class="b" transform="translate(146.838 0.278)"><circle class="c" cx="63.242" cy="63.242" r="63.242"/></g><circle class="d" cx="61.905" cy="61.905" r="61.905" transform="translate(148.175 1.271)"/><path class="f" d="M540.969,188.56s-7.018,34.576-10.849,32.66c0,0,36.944,31.913,69.566,0,0,0-5.746-24.366-14.041-32.66Z" transform="translate(-355.036 -124.833)"/><path class="e" d="M564.973,281.882A61.615,61.615,0,0,0,599,271.7c-2.281-12.464-10.963-13.179-10.963-13.179H540.17s-8.186.671-10.75,12.142A61.621,61.621,0,0,0,564.973,281.882Z" transform="translate(-354.718 -156.615)"/><circle class="f" cx="27.444" cy="27.444" r="27.444" transform="translate(182.156 34.369)"/><path class="g" d="M366.42,158.88h19.149V174.2a9.572,9.572,0,0,1-9.555,9.572h0a9.572,9.572,0,0,1-9.572-9.572V158.88Z" transform="translate(-166.463 -72.178)"/><path class="h" d="M368.266,157.58h15.493a1.828,1.828,0,0,1,1.828,1.828V172.9a9.572,9.572,0,0,1-9.555,9.572h0a9.572,9.572,0,0,1-9.572-9.572V159.4A1.828,1.828,0,0,1,368.266,157.58Z" transform="translate(-166.481 -71.588)"/><path class="g" d="M575.77,242a27.558,27.558,0,0,0,19.149.055V239.7H575.77Z" transform="translate(-375.775 -148.065)"/><circle class="h" cx="27.444" cy="27.444" r="27.444" transform="translate(182.156 40.322)"/><path class="f" d="M545.3,160.34h52.333s-4.469-21.13-24.251-19.782S545.3,160.34,545.3,160.34Z" transform="translate(-361.932 -102.998)"/><ellipse class="h" cx="2.554" cy="4.786" rx="2.554" ry="4.786" transform="translate(180.17 61.812)"/><ellipse class="h" cx="2.554" cy="4.786" rx="2.554" ry="4.786" transform="translate(233.78 61.812)"/><path class="g" d="M545.3,161.64h52.333s-4.469-21.13-24.251-19.782S545.3,161.64,545.3,161.64Z" transform="translate(-361.932 -103.588)"/><g class="b" transform="translate(297.595 0)"><circle class="c" cx="63.242" cy="63.242" r="63.242"/></g><circle class="d" cx="61.905" cy="61.905" r="61.905" transform="translate(299.052 0.928)"/><path class="e" d="M841.237,281.367a61.616,61.616,0,0,0,34.03-10.183C872.981,258.715,864.3,258,864.3,258H816.44s-8.186.671-10.75,12.142a61.621,61.621,0,0,0,35.547,11.225Z" transform="translate(-480.226 -156.379)"/><circle class="l" cx="29.883" cy="29.883" r="29.883" transform="translate(330.479 31.645)"/><path class="g" d="M642.68,158.36h19.149v15.318a9.572,9.572,0,0,1-9.572,9.588h0a9.572,9.572,0,0,1-9.572-9.572V158.36Z" transform="translate(-291.966 -71.942)"/><path class="k" d="M644.483,157.06h15.493a1.828,1.828,0,0,1,1.828,1.828v13.49a9.572,9.572,0,0,1-9.572,9.572h0a9.572,9.572,0,0,1-9.572-9.572v-13.49a1.828,1.828,0,0,1,1.828-1.828Z" transform="translate(-291.957 -71.352)"/><path class="g" d="M852,241.477a27.558,27.558,0,0,0,19.149.055V239.18H852Z" transform="translate(-501.264 -147.829)"/><circle class="k" cx="27.444" cy="27.444" r="27.444" transform="translate(332.918 40.044)"/><path class="g" d="M833.82,143.945s11.563,23.465,44.2,9.823l-7.6-11.913-13.463-4.835Z" transform="translate(-493.005 -101.418)"/><path class="l" d="M833.82,143.315s11.563,23.465,44.2,9.823l-7.6-11.913-13.463-4.835Z" transform="translate(-493.005 -101.132)"/><path class="l" d="M833.153,130.4a15.853,15.853,0,0,1,3.929-6.39c5.4-5.337,14.248-6.461,18.789-12.551a3.553,3.553,0,0,1-1.637,5.01c4.366-.027,9.392-.409,11.847-3.989a8.136,8.136,0,0,1-1.37,8.589c3.853.175,7.967,2.789,8.218,6.641a7.672,7.672,0,0,1-3.553,6.467,19.531,19.531,0,0,1-7.165,2.679C854.889,138.494,828.373,145.266,833.153,130.4Z" transform="translate(-492.442 -89.806)"/><path class="l" d="M874.251,195.89h-.726L859.369,208.5c-13.643-6.385-23.651,0-23.651,0l-14.843-12.082-1.5.186a27.442,27.442,0,1,0,54.879-.7Zm-27.482,17.435c-5.337,0-9.664-1.091-9.664-2.417s4.327-2.417,9.664-2.417,9.664,1.091,9.664,2.417-4.327,2.417-9.67,2.417Z" transform="translate(-486.445 -128.163)"/><ellipse class="k" cx="2.554" cy="4.786" rx="2.554" ry="4.786" transform="translate(330.354 62.674)"/><ellipse class="k" cx="2.554" cy="4.786" rx="2.554" ry="4.786" transform="translate(385.246 62.674)"/><g class="b" transform="translate(0 136.885)"><circle class="c" cx="63.242" cy="63.242" r="63.242"/></g><circle class="d" cx="61.905" cy="61.905" r="61.905" transform="translate(1.457 137.818)"/><path class="e" d="M295.875,532.212A61.615,61.615,0,0,0,329.9,522.029c-2.281-12.464-10.963-13.179-10.963-13.179H271.05s-8.186.671-10.75,12.142a61.62,61.62,0,0,0,35.574,11.22Z" transform="translate(-232.458 -270.339)"/><circle class="f" cx="29.883" cy="29.883" r="29.883" transform="translate(32.879 168.536)"/><path class="g" d="M97.34,409.21h19.149v15.318a9.572,9.572,0,0,1-9.572,9.572h0a9.572,9.572,0,0,1-9.572-9.572V409.21Z" transform="translate(-44.221 -185.902)"/><path class="m" d="M99.168,407.905h15.493a1.828,1.828,0,0,1,1.828,1.828v13.5a9.572,9.572,0,0,1-9.572,9.572h0a9.572,9.572,0,0,1-9.577-9.572V409.728a1.828,1.828,0,0,1,1.828-1.828Z" transform="translate(-44.221 -185.307)"/><path class="g" d="M306.69,492.314a27.558,27.558,0,0,0,19.149.055V490H306.69Z" transform="translate(-253.533 -261.775)"/><circle class="m" cx="27.444" cy="27.444" r="27.444" transform="translate(35.318 176.934)"/><path class="g" d="M288.48,394.785s11.564,23.465,44.2,9.823l-7.6-11.913-13.463-4.835Z" transform="translate(-245.26 -215.374)"/><path class="f" d="M288.48,394.155s11.564,23.465,44.2,9.823l-7.6-11.913-13.463-4.835Z" transform="translate(-245.26 -215.087)"/><path class="f" d="M287.813,381.231a15.853,15.853,0,0,1,3.929-6.39c5.4-5.337,14.248-6.461,18.789-12.551a3.553,3.553,0,0,1-1.637,5.01c4.366-.027,9.392-.409,11.847-3.989a8.137,8.137,0,0,1-1.37,8.589c3.853.175,7.967,2.789,8.218,6.641a7.672,7.672,0,0,1-3.553,6.467,19.79,19.79,0,0,1-7.171,2.7C309.543,389.335,283.033,396.107,287.813,381.231Z" transform="translate(-244.697 -203.757)"/><ellipse class="m" cx="2.554" cy="4.786" rx="2.554" ry="4.786" transform="translate(32.753 199.564)"/><ellipse class="m" cx="2.554" cy="4.786" rx="2.554" ry="4.786" transform="translate(87.646 199.564)"/><g class="b" transform="translate(299.952 143.897)"><circle class="c" cx="63.242" cy="63.242" r="63.242"/></g><circle class="d" cx="61.905" cy="61.905" r="61.905" transform="translate(301.289 144.89)"/><path class="i" d="M845.553,545.062a61.616,61.616,0,0,0,34.03-10.183C877.3,522.415,868.62,521.7,868.62,521.7H820.75s-8.186.671-10.75,12.142a61.621,61.621,0,0,0,35.553,11.22Z" transform="translate(-482.184 -276.176)"/><path class="g" d="M647,422.06h19.149v15.318a9.572,9.572,0,0,1-9.572,9.572h0A9.572,9.572,0,0,1,647,437.378Z" transform="translate(-293.929 -191.74)"/><path class="m" d="M648.828,420.76h15.493a1.828,1.828,0,0,1,1.828,1.828v13.49a9.572,9.572,0,0,1-9.572,9.572h0A9.572,9.572,0,0,1,647,436.078v-13.49A1.828,1.828,0,0,1,648.828,420.76Z" transform="translate(-293.929 -191.149)"/><path class="g" d="M856.35,505.177a27.559,27.559,0,0,0,19.149.055V502.88H856.35Z" transform="translate(-503.241 -267.626)"/><circle class="m" cx="27.444" cy="27.444" r="27.444" transform="translate(335.27 183.946)"/><ellipse class="m" cx="2.554" cy="4.786" rx="2.554" ry="4.786" transform="translate(333.284 205.431)"/><ellipse class="m" cx="2.554" cy="4.786" rx="2.554" ry="4.786" transform="translate(386.894 205.431)"/><rect class="n" width="11.738" height="5.872" rx="2.936" transform="translate(345.993 211.521)"/><rect class="n" width="11.738" height="5.872" rx="2.936" transform="translate(379.44 217.387) rotate(180)"/><path class="n" d="M864,459.683s3.722-2.019,10.641,0" transform="translate(-506.716 -247.595)"/><path class="o" d="M908.72,422.7l6.734,15.645S923.689,427.966,908.72,422.7Z" transform="translate(-527.032 -231.201)"/><line class="p" y1="8.977" x2="10.052" transform="translate(379.44 205.48)"/><path class="o" d="M831.713,422.7l-6.734,15.645S816.744,427.966,831.713,422.7Z" transform="translate(-487.962 -231.201)"/><line class="p" x1="10.188" y1="8.977" transform="translate(335.805 205.48)"/><g class="b" transform="translate(0.453 279.057)"><circle class="c" cx="63.242" cy="63.242" r="63.242"/></g><circle class="d" cx="61.905" cy="61.905" r="61.905" transform="translate(1.79 280.05)"/><path class="q" d="M333.44,679.989c0,22.8-14.876,48.18-33.228,48.18S267,702.789,267,679.989s14.876-34.379,33.228-34.379S333.44,657.2,333.44,679.989Z" transform="translate(-235.502 -332.468)"/><path class="r" d="M296.727,792.752a61.615,61.615,0,0,0,34.03-10.183c-2.281-12.464-10.963-13.179-10.963-13.179H271.93s-8.186.671-10.75,12.142A61.62,61.62,0,0,0,296.727,792.752Z" transform="translate(-232.858 -388.701)"/><path class="g" d="M98.18,669.74h19.149v15.318a9.572,9.572,0,0,1-9.572,9.572h0a9.572,9.572,0,0,1-9.572-9.572V669.74Z" transform="translate(-44.603 -304.259)"/><path class="m" d="M100.013,668.44h15.493a1.828,1.828,0,0,1,1.828,1.828v13.49a9.572,9.572,0,0,1-9.572,9.572h0a9.572,9.572,0,0,1-9.572-9.572v-13.49A1.828,1.828,0,0,1,100.013,668.44Z" transform="translate(-44.607 -303.669)"/><path class="g" d="M307.53,752.857a27.559,27.559,0,0,0,19.149.055V750.56H307.53Z" transform="translate(-253.914 -380.146)"/><circle class="m" cx="27.444" cy="27.444" r="27.444" transform="translate(35.776 319.107)"/><ellipse class="m" cx="2.554" cy="4.786" rx="2.554" ry="4.786" transform="translate(33.79 340.591)"/><ellipse class="m" cx="2.554" cy="4.786" rx="2.554" ry="4.786" transform="translate(87.4 340.591)"/><path class="g" d="M280.57,666.731s15.514,21.233,51.094,13.981c0,0,3.973-4.835-5.7-19.678S289.372,648.609,280.57,666.731Z" transform="translate(-241.667 -335.068)"/><path class="q" d="M280.57,666.1s15.514,21.233,51.094,13.981c0,0,3.973-4.835-5.7-19.678S289.372,647.979,280.57,666.1Z" transform="translate(-241.667 -334.782)"/><g class="b" transform="translate(150.691 286.31)"><circle class="c" cx="63.242" cy="63.242" r="63.242"/></g><circle class="d" cx="61.905" cy="61.905" r="61.905" transform="translate(152.154 287.243)"/><path class="f" d="M606.036,691.728c0,20.595-14.794,30.729-34.008,30.729s-35.558-10.134-35.558-30.729,15.574-37.288,34.783-37.288S606.036,671.117,606.036,691.728Z" transform="translate(-357.921 -336.479)"/><path class="i" d="M572.037,806.032a61.615,61.615,0,0,0,34.036-10.183c-2.281-12.464-10.963-13.179-10.963-13.179H547.24s-8.186.671-10.75,12.142a61.621,61.621,0,0,0,35.547,11.22Z" transform="translate(-357.93 -394.734)"/><path class="g" d="M373.476,683h19.149v15.318a9.572,9.572,0,0,1-9.593,9.588h0a9.572,9.572,0,0,1-9.572-9.572V683Z" transform="translate(-169.661 -310.283)"/><path class="k" d="M375.3,681.725h15.493a1.828,1.828,0,0,1,1.828,1.828v13.49a9.572,9.572,0,0,1-9.588,9.572h0a9.572,9.572,0,0,1-9.572-9.572v-13.5a1.828,1.828,0,0,1,1.828-1.828Z" transform="translate(-169.661 -309.702)"/><path class="g" d="M582.84,766.147a27.558,27.558,0,0,0,19.149.055V763.85H582.84Z" transform="translate(-378.986 -386.184)"/><circle class="k" cx="27.444" cy="27.444" r="27.444" transform="translate(186.015 326.354)"/><path class="g" d="M542.48,697.011s17.091-2.074,30.014-18.641c0,0,17.091,18.816,29,16.742,0,0,6.9-7.252,0-14.5s-12.257-16.4-21.4-15.193-20.371,1.724-25.2,6.041S542.48,697.011,542.48,697.011Z" transform="translate(-360.651 -341.419)"/><path class="f" d="M542.48,696.381s17.091-2.074,30.014-18.641c0,0,17.091,18.816,29,16.742,0,0,6.9-7.252,0-14.5s-12.257-16.4-21.4-15.192-20.349,1.7-25.179,6.068S542.48,696.381,542.48,696.381Z" transform="translate(-360.651 -341.132)"/><ellipse class="k" cx="2.554" cy="4.786" rx="2.554" ry="4.786" transform="translate(183.45 348.989)"/><ellipse class="k" cx="2.554" cy="4.786" rx="2.554" ry="4.786" transform="translate(238.342 348.989)"/></g></g></svg>