<svg xmlns="http://www.w3.org/2000/svg" xmlns:xlink="http://www.w3.org/1999/xlink" width="508.709" height="485.001" viewBox="0 0 508.709 485.001"><defs><style>.a,.e,.m,.n{opacity:0.5;}.b{fill:none;stroke:#535461;stroke-miterlimit:10;stroke-width:2px;}.c{fill:#3dbb02;}.d{fill:#6c63ff;}.e,.j{fill:#fff;}.f{fill:#b1d1a5;}.g{fill:#474059;}.h{opacity:0.1;}.i{fill:url(#a);}.k,.m{fill:#c0bccf;}.l,.n{fill:#70ad47;}.o{fill:url(#b);}.p{fill:#493545;}.q{fill:#c77485;}.r{fill:#444176;}.s{fill:url(#c);}.t{fill:#f1d2d7;}.u{fill:url(#d);}.v{fill:#53526b;}.w{opacity:0.05;}.x{fill:#5f5d7e;}.y{opacity:0.02;}.z{fill:#e82127;}.aa{fill:#d6dbe6;}.ab{fill:#fdc2cc;}.ac{fill:#865a61;}.ad{fill:url(#e);}.ae{fill:#50812e;}.af{fill:url(#f);}.ag{fill:#555388;}</style><linearGradient id="a" x1="0.5" y1="1" x2="0.5" gradientUnits="objectBoundingBox"><stop offset="0" stop-color="gray" stop-opacity="0.251"/><stop offset="0.54" stop-color="gray" stop-opacity="0.122"/><stop offset="1" stop-color="gray" stop-opacity="0.102"/></linearGradient><linearGradient id="b" y1="1" y2="0" xlink:href="#a"/><linearGradient id="c" x1="0" y1="0.5" x2="1" y2="0.5" xlink:href="#a"/><linearGradient id="d" x1="2.581" y1="1" x2="2.581" y2="0" xlink:href="#a"/><linearGradient id="e" y1="1" y2="0" xlink:href="#a"/><linearGradient id="f" x1="-25.357" y1="1.001" x2="-25.357" y2="0" xlink:href="#a"/></defs><g class="a" transform="translate(379.298 195.697)"><path class="b" d="M898.19,612.448s1.963-58.161,33.43-91.026A88.161,88.161,0,0,0,955.8,471.161a148.307,148.307,0,0,0,.738-27.111" transform="translate(-859.388 -406.935)"/><path class="c" d="M1013.038,397.964c-2.154,6.5-20.157,21.418-20.157,21.418s-5.515-22.733-3.361-29.223a12.389,12.389,0,0,1,23.518,7.8Z" transform="translate(-896.18 -381.666)"/><path class="c" d="M1022.557,465.131C1017.2,469.415,994,472.163,994,472.163s7.734-22.078,13.089-26.356a12.387,12.387,0,1,1,15.469,19.324Z" transform="translate(-898.197 -406.414)"/><path class="c" d="M987.116,566.436c-6.771,1-28.206-8.329-28.206-8.329s17.813-15.159,24.583-16.159a12.389,12.389,0,0,1,3.623,24.511Z" transform="translate(-883.983 -446.535)"/><path class="c" d="M941.9,638.488c-6.5,2.13-29.211-3.463-29.211-3.463s15-17.949,21.5-20.079a12.39,12.39,0,1,1,7.734,23.542Z" transform="translate(-865.261 -475.906)"/><path class="c" d="M950.852,468.2c3.159,6.068,23.328,17.949,23.328,17.949s1.832-23.316-1.327-29.39a12.387,12.387,0,1,0-21.977,11.435Z" transform="translate(-880.162 -409.38)"/><path class="c" d="M898.321,550.69c4.831,4.849,27.605,10.156,27.605,10.156s-5.23-22.8-10.055-27.647a12.387,12.387,0,0,0-17.551,17.485Z" transform="translate(-857.978 -441.569)"/><path class="c" d="M860.788,640.553c3.938,5.592,25.493,14.677,25.493,14.677s-1.3-23.351-5.241-28.95a12.387,12.387,0,1,0-20.228,14.279Z" transform="translate(-843.232 -478.488)"/><path class="b" d="M890.229,623.937s-17.848-25.963-14.719-50.391a47.739,47.739,0,0,0-5.64-29.664,80.318,80.318,0,0,0-8.4-12.042" transform="translate(-844.514 -442.495)"/><path class="d" d="M855.733,502.795c1.148,3.522-1.886,15.814-1.886,15.814s-9.715-8.127-10.864-11.643a6.706,6.706,0,0,1,12.75-4.165Z" transform="translate(-836.891 -428.859)"/><path class="d" d="M884.135,527.193c-.946,3.57-10.18,12.25-10.18,12.25s-3.736-12.1-2.79-15.683a6.708,6.708,0,0,1,12.97,3.433Z" transform="translate(-848.379 -437.2)"/><path class="d" d="M900.419,581.389c-2.624,2.612-14.969,5.438-14.969,5.438s2.88-12.333,5.509-14.945a6.71,6.71,0,1,1,9.46,9.519Z" transform="translate(-854.228 -457.925)"/><path class="d" d="M904.862,627.54c-2.148,3.016-13.862,7.877-13.862,7.877s.756-12.643,2.9-15.659a6.707,6.707,0,0,1,10.935,7.77Z" transform="translate(-856.476 -476.964)"/><path class="d" d="M851.279,553.333c3.326,1.63,15.921.321,15.921.321s-6.705-10.745-10.031-12.369a6.705,6.705,0,0,0-5.89,12.048Z" transform="translate(-838.862 -446.044)"/><path class="d" d="M854.95,606.185c3.665.559,15.29-4.456,15.29-4.456s-9.614-8.246-13.273-8.781a6.707,6.707,0,1,0-2.017,13.261Z" transform="translate(-839.565 -467.216)"/><path class="d" d="M867.642,657.434c3.516,1.19,15.825-1.785,15.825-1.785s-8.079-9.751-11.6-10.923a6.708,6.708,0,1,0-4.23,12.732Z" transform="translate(-845.153 -488.081)"/><path class="e" d="M855.733,502.795c1.148,3.522-1.886,15.814-1.886,15.814s-9.715-8.127-10.864-11.643a6.706,6.706,0,0,1,12.75-4.165Z" transform="translate(-836.891 -428.859)"/><path class="f" d="M884.135,527.193c-.946,3.57-10.18,12.25-10.18,12.25s-3.736-12.1-2.79-15.683a6.708,6.708,0,0,1,12.97,3.433Z" transform="translate(-848.379 -437.2)"/><path class="f" d="M900.419,581.389c-2.624,2.612-14.969,5.438-14.969,5.438s2.88-12.333,5.509-14.945a6.71,6.71,0,1,1,9.46,9.519Z" transform="translate(-854.228 -457.925)"/><path class="f" d="M904.862,627.54c-2.148,3.016-13.862,7.877-13.862,7.877s.756-12.643,2.9-15.659a6.707,6.707,0,0,1,10.935,7.77Z" transform="translate(-856.476 -476.964)"/><path class="f" d="M851.279,553.333c3.326,1.63,15.921.321,15.921.321s-6.705-10.745-10.031-12.369a6.705,6.705,0,0,0-5.89,12.048Z" transform="translate(-838.862 -446.044)"/><path class="f" d="M854.95,606.185c3.665.559,15.29-4.456,15.29-4.456s-9.614-8.246-13.273-8.781a6.707,6.707,0,1,0-2.017,13.261Z" transform="translate(-839.565 -467.216)"/><path class="f" d="M867.642,657.434c3.516,1.19,15.825-1.785,15.825-1.785s-8.079-9.751-11.6-10.923a6.708,6.708,0,1,0-4.23,12.732Z" transform="translate(-845.153 -488.081)"/><path class="g" d="M802.46,728.4h50.766l12.7-77.42H789.77Z" transform="translate(-789.77 -476.559)"/><path class="h" d="M799.485,650.98l11.857,72.345h42.717l-.833,5.075H802.46l-12.69-77.42Z" transform="translate(-789.77 -476.559)"/></g><rect class="i" width="372.433" height="449.358" transform="translate(29.182 6.199)"/><rect class="j" width="362.914" height="437.876" transform="translate(33.941 11.946)"/><rect class="k" width="146.355" height="7.139" transform="translate(174.942 61.326)"/><rect class="k" width="146.355" height="7.139" transform="translate(174.942 83.934)"/><rect class="l" width="76.152" height="7.139" transform="translate(210.044 106.542)"/><rect class="m" width="146.355" height="7.139" transform="translate(174.942 204.707)"/><rect class="m" width="146.355" height="7.139" transform="translate(174.942 227.315)"/><rect class="n" width="76.152" height="7.139" transform="translate(210.044 249.922)"/><rect class="m" width="146.355" height="7.139" transform="translate(174.942 348.087)"/><rect class="m" width="146.355" height="7.139" transform="translate(174.942 370.695)"/><rect class="n" width="76.152" height="7.139" transform="translate(210.044 393.303)"/><g class="a" transform="translate(53.574 190.421)"><path class="k" d="M366.392,413.255a40.265,40.265,0,0,1-9.739,26.326c-.309.363-.631.72-.958,1.071q-.244.274-.5.535a39.689,39.689,0,0,1-4.319,3.921l-.107.077a39.539,39.539,0,0,1-7.675,4.712h0a39.868,39.868,0,0,1-4.307,1.725l-.541.173c-.333.113-.678.214-1.017.309l-.137.042a40.652,40.652,0,0,1-22.34,0h-.06c-.595-.173-1.19-.351-1.737-.547l-.506-.178a39.225,39.225,0,0,1-5.592-2.475l-.113-.059a40.611,40.611,0,0,1-7.925-5.61l-.2-.184a37.8,37.8,0,0,1-3.457-3.57c-.143-.161-.28-.327-.416-.494-.262-.309-.512-.631-.762-.952a40.456,40.456,0,1,1,72.4-24.821Z" transform="translate(-285.48 -372.798)"/><path class="o" d="M361.112,432.971l-3.07-1.38a12.173,12.173,0,0,0,.06-1.4,11.039,11.039,0,0,0,0-1.19c-.3-3.129-2.3-5.854-3.707-8.716a24.754,24.754,0,0,1-2.421-8.329c-.375-3.57,0-7.27-1.309-10.626a19.174,19.174,0,0,0-5.426-6.967,27.54,27.54,0,0,0-8.716-5.527,15.414,15.414,0,0,0-10.382-.28c-2.975,1.095-5.265,3.278-7.478,5.4a25.135,25.135,0,0,0-4.224,4.807,20.79,20.79,0,0,0-2.38,7.27,111.207,111.207,0,0,0-1.464,12.149c-.232,3.4-.595,7.252-3.5,9.335-1.416,1.017-3.409,1.589-4.057,3.129a3.2,3.2,0,0,0-.214,1.458,5.352,5.352,0,0,0,.089,1.232c.042.238.089.47.149.708a52.2,52.2,0,0,0-2.094,6.354c-.434,1.606-.833,3.183-1.19,4.712h1.475l5.545.131h.077l5.949.137h.03l5.545.131h.137l1.6.113h.524l22.173.512h.119l1.475.036h.518l4.438.1h0l6.544.149h.048l4.926.119h1.535l-.262-5.164C363.26,433.465,361.112,432.971,361.112,432.971Zm-24.91-.631c0,4.379-4.688,9.739-4.688,9.739l-4.718-6.425.173-.25,4.545,6.187s4.688-5.354,4.688-9.739a5.142,5.142,0,0,1,.375-.643l.107.333A6.317,6.317,0,0,0,336.2,432.34Zm7.211,17.182a3.584,3.584,0,0,0-.042-.666c-.042-.22-.036-.416-.065-.631s-.053-.422-.083-.637-.071-.422-.113-.637-.083-.422-.131-.637a1,1,0,0,0-.048-.214q-.1-.419-.214-.839c-.077-.28-.125-.452-.2-.672a.914.914,0,0,0-.1-.3c-.036-.1-.1-.321-.155-.482l-.107-.309c-.048-.137-.1-.28-.149-.416-.089-.25-.184-.494-.28-.744s-.2-.494-.3-.738c-.2-.5-.422-.994-.643-1.493-.863-1.928-1.832-3.826-2.725-5.706a30.333,30.333,0,0,1-1.273-3.022l-.113.149a6.31,6.31,0,0,0-.482.8c0,4.379-4.688,9.739-4.688,9.739l-4.718-6.425-4.129,5.949a4.814,4.814,0,0,0-1.654,2.749c-.131.387-.256.815-.375,1.261-.083.3-.161.595-.232.934-.042.161-.077.321-.113.488l-.107.506v.077c-.071.345-.143.7-.208,1.065s-.143.779-.208,1.19q-.071.387-.125.767c-.083.494-.155.994-.226,1.493-.042.292-.083.595-.119.863l-.143,1.107c.3.91.643,1.785.994,2.7a4.248,4.248,0,0,1,.387,1.529,43.359,43.359,0,0,0,22.34,0,.2.2,0,0,1,0-.053,6.214,6.214,0,0,1-.143-1.517h0a39.194,39.194,0,0,1,.595-4.26,14.569,14.569,0,0,0,.113-2.094v-.25c-.018-.226-.024-.428-.03-.625Zm0,0a3.584,3.584,0,0,0-.042-.666c-.042-.22-.036-.416-.065-.631s-.053-.422-.083-.637-.071-.422-.113-.637-.083-.422-.131-.637a1,1,0,0,0-.048-.214q-.1-.419-.214-.839c-.077-.28-.125-.452-.2-.672a.914.914,0,0,0-.1-.3c-.036-.1-.1-.321-.155-.482l-.107-.309c-.048-.137-.1-.28-.149-.416-.089-.25-.184-.494-.28-.744s-.2-.494-.3-.738c-.2-.5-.422-.994-.643-1.493-.863-1.928-1.832-3.826-2.725-5.706a30.333,30.333,0,0,1-1.273-3.022l-.113.149a6.31,6.31,0,0,0-.482.8c0,4.379-4.688,9.739-4.688,9.739l-4.718-6.425-4.129,5.949a4.814,4.814,0,0,0-1.654,2.749c-.131.387-.256.815-.375,1.261-.083.3-.161.595-.232.934-.042.161-.077.321-.113.488l-.107.506v.077c-.071.345-.143.7-.208,1.065s-.143.779-.208,1.19q-.071.387-.125.767c-.083.494-.155.994-.226,1.493-.042.292-.083.595-.119.863l-.143,1.107c.3.91.643,1.785.994,2.7a4.248,4.248,0,0,1,.387,1.529,43.359,43.359,0,0,0,22.34,0,.2.2,0,0,1,0-.053,6.214,6.214,0,0,1-.143-1.517h0a39.194,39.194,0,0,1,.595-4.26,14.569,14.569,0,0,0,.113-2.094v-.25c-.018-.226-.024-.428-.03-.625Zm0,0a3.584,3.584,0,0,0-.042-.666c-.042-.22-.036-.416-.065-.631s-.053-.422-.083-.637-.071-.422-.113-.637-.083-.422-.131-.637a1,1,0,0,0-.048-.214q-.1-.419-.214-.839c-.077-.28-.125-.452-.2-.672a.914.914,0,0,0-.1-.3c-.036-.1-.1-.321-.155-.482l-.107-.309c-.048-.137-.1-.28-.149-.416-.089-.25-.184-.494-.28-.744s-.2-.494-.3-.738c-.2-.5-.422-.994-.643-1.493-.863-1.928-1.832-3.826-2.725-5.706a30.333,30.333,0,0,1-1.273-3.022l-.113.149a6.31,6.31,0,0,0-.482.8c0,4.379-4.688,9.739-4.688,9.739l-4.718-6.425-4.129,5.949a4.814,4.814,0,0,0-1.654,2.749c-.131.387-.256.815-.375,1.261-.083.3-.161.595-.232.934-.042.161-.077.321-.113.488l-.107.506v.077c-.071.345-.143.7-.208,1.065s-.143.779-.208,1.19q-.071.387-.125.767c-.083.494-.155.994-.226,1.493-.042.292-.083.595-.119.863l-.143,1.107c.3.91.643,1.785.994,2.7a4.248,4.248,0,0,1,.387,1.529,43.359,43.359,0,0,0,22.34,0,.2.2,0,0,1,0-.053,6.214,6.214,0,0,1-.143-1.517h0a39.194,39.194,0,0,1,.595-4.26,14.569,14.569,0,0,0,.113-2.094v-.25c-.018-.226-.024-.428-.03-.625Zm0,0a3.584,3.584,0,0,0-.042-.666c-.042-.22-.036-.416-.065-.631s-.053-.422-.083-.637-.071-.422-.113-.637-.083-.422-.131-.637a1,1,0,0,0-.048-.214q-.1-.419-.214-.839c-.077-.28-.125-.452-.2-.672a.914.914,0,0,0-.1-.3c-.036-.1-.1-.321-.155-.482l-.107-.309c-.048-.137-.1-.28-.149-.416-.089-.25-.184-.494-.28-.744s-.2-.494-.3-.738c-.2-.5-.422-.994-.643-1.493-.863-1.928-1.832-3.826-2.725-5.706a30.333,30.333,0,0,1-1.273-3.022l-.113.149a6.31,6.31,0,0,0-.482.8c0,4.379-4.688,9.739-4.688,9.739l-4.718-6.425-4.129,5.949a4.814,4.814,0,0,0-1.654,2.749c-.131.387-.256.815-.375,1.261-.083.3-.161.595-.232.934-.042.161-.077.321-.113.488l-.107.506v.077c-.071.345-.143.7-.208,1.065s-.143.779-.208,1.19q-.071.387-.125.767c-.083.494-.155.994-.226,1.493-.042.292-.083.595-.119.863l-.143,1.107c.3.91.643,1.785.994,2.7a4.248,4.248,0,0,1,.387,1.529,43.359,43.359,0,0,0,22.34,0,.2.2,0,0,1,0-.053,6.214,6.214,0,0,1-.143-1.517h0a39.194,39.194,0,0,1,.595-4.26,14.569,14.569,0,0,0,.113-2.094v-.25c-.018-.226-.024-.428-.03-.625Z" transform="translate(-291.272 -378.866)"/><rect class="p" width="27.367" height="18.443" transform="translate(24.988 29.159)"/><path class="q" d="M359.192,444.31l-11.453,16.135-11.97-1.041s-15.617,1.035-5.206-10.929c5-5.753,6.64-10.548,6.991-13.969a10.817,10.817,0,0,0-.744-5.807l13.011-1.559a9.709,9.709,0,0,0-.214,5.432C351.238,439.33,359.192,444.31,359.192,444.31Z" transform="translate(-302.292 -394.81)"/><path class="h" d="M356.287,432.546a13.006,13.006,0,0,1-12.054,1.94,10.817,10.817,0,0,0-.744-5.807L356.5,427.12a9.709,9.709,0,0,0-.214,5.426Z" transform="translate(-308.977 -394.802)"/><circle class="q" cx="13.011" cy="13.011" r="13.011" transform="translate(26.451 13.84)"/><path class="h" d="M356.381,453.717l-.3-1.19-.262-1.047-.387-1.547-.071-.286-.059-.238s.309-.934-1.731-.631l-.381.065c-.321.065-.7.155-1.124.274l-.387.119-.512.161h0A11.156,11.156,0,0,0,346.844,452a9.727,9.727,0,0,0-1.446,1.749c-.042.06-.071.113-.107.161a5.617,5.617,0,0,0-.375.69c0,4.688-4.688,10.411-4.688,10.411l-4.575-6.61-.089-.131-1.089-1.583-.387-.512-.131-.178-2.38-3.195-.595-.8-.2-.268-.291-.387-.684-.91-2.677,1.565-3.57,2.082-2.082,13.535V468l.065,1.118.434,7.353v.1l-.762,3.046.113.06a39.229,39.229,0,0,0,5.592,2.475l.506.178c.595.2,1.154.375,1.737.547a2.106,2.106,0,0,1,.048.268c0-.083,0-.173,0-.256a40.653,40.653,0,0,0,22.34,0l.137-.042c.339-.1.684-.2,1.017-.309l.541-.173a39.87,39.87,0,0,0,4.307-1.725l.5-10.649.357-7.681v-.44Z" transform="translate(-299.957 -403.55)"/><path class="j" d="M352.187,473.857a4.106,4.106,0,0,0-.042-.714c-.042-.238-.036-.446-.065-.672s-.054-.452-.083-.678-.071-.452-.113-.678-.083-.452-.131-.678a1.02,1.02,0,0,0-.048-.226c-.065-.3-.137-.595-.214-.9s-.125-.482-.2-.72a1.013,1.013,0,0,0-.1-.315c-.036-.1-.1-.345-.155-.518l-.107-.333c-.048-.149-.1-.3-.149-.446-.089-.268-.184-.53-.28-.8s-.2-.529-.3-.791c-.2-.535-.422-1.065-.643-1.594-.863-2.058-1.832-4.087-2.725-6.1a33.709,33.709,0,0,1-1.273-3.231l-.113.161a6.869,6.869,0,0,0-.482.857c0,4.682-4.688,10.411-4.688,10.411l-4.718-6.872-4.129,6.348c-.595.315-1.19,1.4-1.654,2.939-.131.417-.256.869-.375,1.351-.083.321-.161.66-.232,1-.042.172-.077.345-.113.524l-.107.541v.083c-.071.369-.143.75-.208,1.136s-.143.833-.208,1.255q-.071.411-.125.821c-.083.529-.155,1.065-.226,1.594-.042.309-.083.595-.119.922l-.143,1.19c.3.976.643,1.94.994,2.885a4.8,4.8,0,0,1,.387,1.636,40.652,40.652,0,0,0,22.34,0,.226.226,0,0,1,0-.06,7.083,7.083,0,0,1-.143-1.624h0a44.629,44.629,0,0,1,.595-4.551,16.649,16.649,0,0,0,.113-2.237v-.268C352.2,474.286,352.193,474.072,352.187,473.857Zm0,0a4.106,4.106,0,0,0-.042-.714c-.042-.238-.036-.446-.065-.672s-.054-.452-.083-.678-.071-.452-.113-.678-.083-.452-.131-.678a1.02,1.02,0,0,0-.048-.226c-.065-.3-.137-.595-.214-.9s-.125-.482-.2-.72a1.013,1.013,0,0,0-.1-.315c-.036-.1-.1-.345-.155-.518l-.107-.333c-.048-.149-.1-.3-.149-.446-.089-.268-.184-.53-.28-.8s-.2-.529-.3-.791c-.2-.535-.422-1.065-.643-1.594-.863-2.058-1.832-4.087-2.725-6.1a33.709,33.709,0,0,1-1.273-3.231l-.113.161a6.869,6.869,0,0,0-.482.857c0,4.682-4.688,10.411-4.688,10.411l-4.718-6.872-4.129,6.348c-.595.315-1.19,1.4-1.654,2.939-.131.417-.256.869-.375,1.351-.083.321-.161.66-.232,1-.042.172-.077.345-.113.524l-.107.541v.083c-.071.369-.143.75-.208,1.136s-.143.833-.208,1.255q-.071.411-.125.821c-.083.529-.155,1.065-.226,1.594-.042.309-.083.595-.119.922l-.143,1.19c.3.976.643,1.94.994,2.885a4.8,4.8,0,0,1,.387,1.636,40.652,40.652,0,0,0,22.34,0,.226.226,0,0,1,0-.06,7.083,7.083,0,0,1-.143-1.624h0a44.629,44.629,0,0,1,.595-4.551,16.649,16.649,0,0,0,.113-2.237v-.268C352.2,474.286,352.193,474.072,352.187,473.857Zm0,0a4.106,4.106,0,0,0-.042-.714c-.042-.238-.036-.446-.065-.672s-.054-.452-.083-.678-.071-.452-.113-.678-.083-.452-.131-.678a1.02,1.02,0,0,0-.048-.226c-.065-.3-.137-.595-.214-.9s-.125-.482-.2-.72a1.013,1.013,0,0,0-.1-.315c-.036-.1-.1-.345-.155-.518l-.107-.333c-.048-.149-.1-.3-.149-.446-.089-.268-.184-.53-.28-.8s-.2-.529-.3-.791c-.2-.535-.422-1.065-.643-1.594-.863-2.058-1.832-4.087-2.725-6.1a33.709,33.709,0,0,1-1.273-3.231l-.113.161a6.869,6.869,0,0,0-.482.857c0,4.682-4.688,10.411-4.688,10.411l-4.718-6.872-4.129,6.348c-.595.315-1.19,1.4-1.654,2.939-.131.417-.256.869-.375,1.351-.083.321-.161.66-.232,1-.042.172-.077.345-.113.524l-.107.541v.083c-.071.369-.143.75-.208,1.136s-.143.833-.208,1.255q-.071.411-.125.821c-.083.529-.155,1.065-.226,1.594-.042.309-.083.595-.119.922l-.143,1.19c.3.976.643,1.94.994,2.885a4.8,4.8,0,0,1,.387,1.636,40.652,40.652,0,0,0,22.34,0,.226.226,0,0,1,0-.06,7.083,7.083,0,0,1-.143-1.624h0a44.629,44.629,0,0,1,.595-4.551,16.649,16.649,0,0,0,.113-2.237v-.268C352.2,474.286,352.193,474.072,352.187,473.857Zm6.306-11.167-2.124-8.478-.363-1.452-.1-.4h0l-.518-2.07a.387.387,0,0,0,0-.054h0a.476.476,0,0,0-.042-.268c-.077-.155-.274-.315-.732-.357a3.692,3.692,0,0,0-.524,0h0a9.055,9.055,0,0,0-1.529.286c-.244.065-.506.137-.785.226l-.512.161h-.048a11.353,11.353,0,0,0-3.748,2.082,10.114,10.114,0,0,0-1.9,2.106l-.113.161a6.876,6.876,0,0,0-.482.857c0,4.682-4.688,10.411-4.688,10.411l-4.718-6.872-.268-.387-.048-.065-.684-1.005-.518-.69-.137-.178-2.439-3.254h0L330.7,452.4v-.036L330.43,452l-.512-.678-1.785,1.041-4.462,2.6-2.059,13.392v.143l.06.976.44,7.455v.422l-.672,2.683a39.24,39.24,0,0,0,5.592,2.475l.506.178c.595.2,1.154.375,1.737.547a2.1,2.1,0,0,1,.048.268v-.256a40.653,40.653,0,0,0,22.34,0l.137-.042c.339-.1.684-.2,1.017-.309l.541-.173A39.865,39.865,0,0,0,357.666,481h0l.494-10.638.357-7.6Zm-29.259,20.543a2.107,2.107,0,0,1,.048.268c0-.083,0-.173,0-.256Zm22.953-9.376a4.106,4.106,0,0,0-.042-.714c-.042-.238-.036-.446-.065-.672s-.054-.452-.083-.678-.071-.452-.113-.678-.083-.452-.131-.678a1.02,1.02,0,0,0-.048-.226c-.065-.3-.137-.595-.214-.9s-.125-.482-.2-.72a1.013,1.013,0,0,0-.1-.315c-.036-.1-.1-.345-.155-.518l-.107-.333c-.048-.149-.1-.3-.149-.446-.089-.268-.184-.53-.28-.8s-.2-.529-.3-.791c-.2-.535-.422-1.065-.643-1.594-.863-2.058-1.832-4.087-2.725-6.1a33.709,33.709,0,0,1-1.273-3.231l-.113.161a6.869,6.869,0,0,0-.482.857c0,4.682-4.688,10.411-4.688,10.411l-4.718-6.872-4.129,6.348c-.595.315-1.19,1.4-1.654,2.939-.131.417-.256.869-.375,1.351-.083.321-.161.66-.232,1-.042.172-.077.345-.113.524l-.107.541v.083c-.071.369-.143.75-.208,1.136s-.143.833-.208,1.255q-.071.411-.125.821c-.083.529-.155,1.065-.226,1.594-.042.309-.083.595-.119.922l-.143,1.19c.3.976.643,1.94.994,2.885a4.8,4.8,0,0,1,.387,1.636,40.652,40.652,0,0,0,22.34,0,.226.226,0,0,1,0-.06,7.083,7.083,0,0,1-.143-1.624h0a44.629,44.629,0,0,1,.595-4.551,16.649,16.649,0,0,0,.113-2.237v-.268C352.2,474.286,352.193,474.072,352.187,473.857Zm0,0a4.106,4.106,0,0,0-.042-.714c-.042-.238-.036-.446-.065-.672s-.054-.452-.083-.678-.071-.452-.113-.678-.083-.452-.131-.678a1.02,1.02,0,0,0-.048-.226c-.065-.3-.137-.595-.214-.9s-.125-.482-.2-.72a1.013,1.013,0,0,0-.1-.315c-.036-.1-.1-.345-.155-.518l-.107-.333c-.048-.149-.1-.3-.149-.446-.089-.268-.184-.53-.28-.8s-.2-.529-.3-.791c-.2-.535-.422-1.065-.643-1.594-.863-2.058-1.832-4.087-2.725-6.1a33.709,33.709,0,0,1-1.273-3.231l-.113.161a6.869,6.869,0,0,0-.482.857c0,4.682-4.688,10.411-4.688,10.411l-4.718-6.872-4.129,6.348c-.595.315-1.19,1.4-1.654,2.939-.131.417-.256.869-.375,1.351-.083.321-.161.66-.232,1-.042.172-.077.345-.113.524l-.107.541v.083c-.071.369-.143.75-.208,1.136s-.143.833-.208,1.255q-.071.411-.125.821c-.083.529-.155,1.065-.226,1.594-.042.309-.083.595-.119.922l-.143,1.19c.3.976.643,1.94.994,2.885a4.8,4.8,0,0,1,.387,1.636,40.652,40.652,0,0,0,22.34,0,.226.226,0,0,1,0-.06,7.083,7.083,0,0,1-.143-1.624h0a44.629,44.629,0,0,1,.595-4.551,16.649,16.649,0,0,0,.113-2.237v-.268C352.2,474.286,352.193,474.072,352.187,473.857Zm0,0a4.106,4.106,0,0,0-.042-.714c-.042-.238-.036-.446-.065-.672s-.054-.452-.083-.678-.071-.452-.113-.678-.083-.452-.131-.678a1.02,1.02,0,0,0-.048-.226c-.065-.3-.137-.595-.214-.9s-.125-.482-.2-.72a1.013,1.013,0,0,0-.1-.315c-.036-.1-.1-.345-.155-.518l-.107-.333c-.048-.149-.1-.3-.149-.446-.089-.268-.184-.53-.28-.8s-.2-.529-.3-.791c-.2-.535-.422-1.065-.643-1.594-.863-2.058-1.832-4.087-2.725-6.1a33.709,33.709,0,0,1-1.273-3.231l-.113.161a6.869,6.869,0,0,0-.482.857c0,4.682-4.688,10.411-4.688,10.411l-4.718-6.872-4.129,6.348c-.595.315-1.19,1.4-1.654,2.939-.131.417-.256.869-.375,1.351-.083.321-.161.66-.232,1-.042.172-.077.345-.113.524l-.107.541v.083c-.071.369-.143.75-.208,1.136s-.143.833-.208,1.255q-.071.411-.125.821c-.083.529-.155,1.065-.226,1.594-.042.309-.083.595-.119.922l-.143,1.19c.3.976.643,1.94.994,2.885a4.8,4.8,0,0,1,.387,1.636,40.652,40.652,0,0,0,22.34,0,.226.226,0,0,1,0-.06,7.083,7.083,0,0,1-.143-1.624h0a44.629,44.629,0,0,1,.595-4.551,16.649,16.649,0,0,0,.113-2.237v-.268C352.2,474.286,352.193,474.072,352.187,473.857Zm0,0a4.106,4.106,0,0,0-.042-.714c-.042-.238-.036-.446-.065-.672s-.054-.452-.083-.678-.071-.452-.113-.678-.083-.452-.131-.678a1.02,1.02,0,0,0-.048-.226c-.065-.3-.137-.595-.214-.9s-.125-.482-.2-.72a1.013,1.013,0,0,0-.1-.315c-.036-.1-.1-.345-.155-.518l-.107-.333c-.048-.149-.1-.3-.149-.446-.089-.268-.184-.53-.28-.8s-.2-.529-.3-.791c-.2-.535-.422-1.065-.643-1.594-.863-2.058-1.832-4.087-2.725-6.1a33.709,33.709,0,0,1-1.273-3.231l-.113.161a6.869,6.869,0,0,0-.482.857c0,4.682-4.688,10.411-4.688,10.411l-4.718-6.872-4.129,6.348c-.595.315-1.19,1.4-1.654,2.939-.131.417-.256.869-.375,1.351-.083.321-.161.66-.232,1-.042.172-.077.345-.113.524l-.107.541v.083c-.071.369-.143.75-.208,1.136s-.143.833-.208,1.255q-.071.411-.125.821c-.083.529-.155,1.065-.226,1.594-.042.309-.083.595-.119.922l-.143,1.19c.3.976.643,1.94.994,2.885a4.8,4.8,0,0,1,.387,1.636,40.652,40.652,0,0,0,22.34,0,.226.226,0,0,1,0-.06,7.083,7.083,0,0,1-.143-1.624h0a44.629,44.629,0,0,1,.595-4.551,16.649,16.649,0,0,0,.113-2.237v-.268C352.2,474.286,352.193,474.072,352.187,473.857Zm0,0a4.106,4.106,0,0,0-.042-.714c-.042-.238-.036-.446-.065-.672s-.054-.452-.083-.678-.071-.452-.113-.678-.083-.452-.131-.678a1.02,1.02,0,0,0-.048-.226c-.065-.3-.137-.595-.214-.9s-.125-.482-.2-.72a1.013,1.013,0,0,0-.1-.315c-.036-.1-.1-.345-.155-.518l-.107-.333c-.048-.149-.1-.3-.149-.446-.089-.268-.184-.53-.28-.8s-.2-.529-.3-.791c-.2-.535-.422-1.065-.643-1.594-.863-2.058-1.832-4.087-2.725-6.1a33.709,33.709,0,0,1-1.273-3.231l-.113.161a6.869,6.869,0,0,0-.482.857c0,4.682-4.688,10.411-4.688,10.411l-4.718-6.872-4.129,6.348c-.595.315-1.19,1.4-1.654,2.939-.131.417-.256.869-.375,1.351-.083.321-.161.66-.232,1-.042.172-.077.345-.113.524l-.107.541v.083c-.071.369-.143.75-.208,1.136s-.143.833-.208,1.255q-.071.411-.125.821c-.083.529-.155,1.065-.226,1.594-.042.309-.083.595-.119.922l-.143,1.19c.3.976.643,1.94.994,2.885a4.8,4.8,0,0,1,.387,1.636,40.652,40.652,0,0,0,22.34,0,.226.226,0,0,1,0-.06,7.083,7.083,0,0,1-.143-1.624h0a44.629,44.629,0,0,1,.595-4.551,16.649,16.649,0,0,0,.113-2.237v-.268C352.2,474.286,352.193,474.072,352.187,473.857Zm0,0a4.106,4.106,0,0,0-.042-.714c-.042-.238-.036-.446-.065-.672s-.054-.452-.083-.678-.071-.452-.113-.678-.083-.452-.131-.678a1.02,1.02,0,0,0-.048-.226c-.065-.3-.137-.595-.214-.9s-.125-.482-.2-.72a1.013,1.013,0,0,0-.1-.315c-.036-.1-.1-.345-.155-.518l-.107-.333c-.048-.149-.1-.3-.149-.446-.089-.268-.184-.53-.28-.8s-.2-.529-.3-.791c-.2-.535-.422-1.065-.643-1.594-.863-2.058-1.832-4.087-2.725-6.1a33.709,33.709,0,0,1-1.273-3.231l-.113.161a6.869,6.869,0,0,0-.482.857c0,4.682-4.688,10.411-4.688,10.411l-4.718-6.872-4.129,6.348c-.595.315-1.19,1.4-1.654,2.939-.131.417-.256.869-.375,1.351-.083.321-.161.66-.232,1-.042.172-.077.345-.113.524l-.107.541v.083c-.071.369-.143.75-.208,1.136s-.143.833-.208,1.255q-.071.411-.125.821c-.083.529-.155,1.065-.226,1.594-.042.309-.083.595-.119.922l-.143,1.19c.3.976.643,1.94.994,2.885a4.8,4.8,0,0,1,.387,1.636,40.652,40.652,0,0,0,22.34,0,.226.226,0,0,1,0-.06,7.083,7.083,0,0,1-.143-1.624h0a44.629,44.629,0,0,1,.595-4.551,16.649,16.649,0,0,0,.113-2.237v-.268C352.2,474.286,352.193,474.072,352.187,473.857Zm0,0a4.106,4.106,0,0,0-.042-.714c-.042-.238-.036-.446-.065-.672s-.054-.452-.083-.678-.071-.452-.113-.678-.083-.452-.131-.678a1.02,1.02,0,0,0-.048-.226c-.065-.3-.137-.595-.214-.9s-.125-.482-.2-.72a1.013,1.013,0,0,0-.1-.315c-.036-.1-.1-.345-.155-.518l-.107-.333c-.048-.149-.1-.3-.149-.446-.089-.268-.184-.53-.28-.8s-.2-.529-.3-.791c-.2-.535-.422-1.065-.643-1.594-.863-2.058-1.832-4.087-2.725-6.1a33.709,33.709,0,0,1-1.273-3.231l-.113.161a6.869,6.869,0,0,0-.482.857c0,4.682-4.688,10.411-4.688,10.411l-4.718-6.872-4.129,6.348c-.595.315-1.19,1.4-1.654,2.939-.131.417-.256.869-.375,1.351-.083.321-.161.66-.232,1-.042.172-.077.345-.113.524l-.107.541v.083c-.071.369-.143.75-.208,1.136s-.143.833-.208,1.255q-.071.411-.125.821c-.083.529-.155,1.065-.226,1.594-.042.309-.083.595-.119.922l-.143,1.19c.3.976.643,1.94.994,2.885a4.8,4.8,0,0,1,.387,1.636,40.652,40.652,0,0,0,22.34,0,.226.226,0,0,1,0-.06,7.083,7.083,0,0,1-.143-1.624h0a44.629,44.629,0,0,1,.595-4.551,16.649,16.649,0,0,0,.113-2.237v-.268C352.2,474.286,352.193,474.072,352.187,473.857Zm0,0a4.106,4.106,0,0,0-.042-.714c-.042-.238-.036-.446-.065-.672s-.054-.452-.083-.678-.071-.452-.113-.678-.083-.452-.131-.678a1.02,1.02,0,0,0-.048-.226c-.065-.3-.137-.595-.214-.9s-.125-.482-.2-.72a1.013,1.013,0,0,0-.1-.315c-.036-.1-.1-.345-.155-.518l-.107-.333c-.048-.149-.1-.3-.149-.446-.089-.268-.184-.53-.28-.8s-.2-.529-.3-.791c-.2-.535-.422-1.065-.643-1.594-.863-2.058-1.832-4.087-2.725-6.1a33.709,33.709,0,0,1-1.273-3.231l-.113.161a6.869,6.869,0,0,0-.482.857c0,4.682-4.688,10.411-4.688,10.411l-4.718-6.872-4.129,6.348c-.595.315-1.19,1.4-1.654,2.939-.131.417-.256.869-.375,1.351-.083.321-.161.66-.232,1-.042.172-.077.345-.113.524l-.107.541v.083c-.071.369-.143.75-.208,1.136s-.143.833-.208,1.255q-.071.411-.125.821c-.083.529-.155,1.065-.226,1.594-.042.309-.083.595-.119.922l-.143,1.19c.3.976.643,1.94.994,2.885a4.8,4.8,0,0,1,.387,1.636,40.652,40.652,0,0,0,22.34,0,.226.226,0,0,1,0-.06,7.083,7.083,0,0,1-.143-1.624h0a44.629,44.629,0,0,1,.595-4.551,16.649,16.649,0,0,0,.113-2.237v-.268C352.2,474.286,352.193,474.072,352.187,473.857Z" transform="translate(-300.046 -403.909)"/><path class="h" d="M327.665,458.731l-.4-.053a14.5,14.5,0,0,1-1.785-.357l-.22-.06c-1.452-.411-3.04-1.148-3.4-2.445a2.315,2.315,0,0,1,.036-1.267,10.865,10.865,0,0,1,.809-2.047v-.036a2.836,2.836,0,0,1,.149-.268,5.95,5.95,0,0,1,2.148-2.338l-.714.113-6.045.982-9.37,1.511s-1.666-.333-3.933,5.914a.967.967,0,0,1-.077.232c-.547,1.529-1.124,3.439-1.719,5.824-.411,1.654-.785,3.278-1.13,4.855-.1.476-.2.946-.3,1.41a37.8,37.8,0,0,0,3.457,3.57l.2.184a40.608,40.608,0,0,0,7.925,5.61l.113.06A39.222,39.222,0,0,0,319,482.6l.506.178c.107-1.1.226-2.32.369-3.57a1.017,1.017,0,0,1,.048-.375l.143-1.19c.036-.3.077-.595.119-.922.071-.53.143-1.065.226-1.594q.054-.411.125-.821c.065-.422.137-.845.208-1.255s.137-.768.208-1.136v-.083l.107-.541c.036-.178.071-.351.113-.524.071-.339.149-.678.232-1,.119-.482.244-.934.375-1.351.476-1.541,1.029-2.624,1.654-2.939l4.129-6.348.173-.268.077-.119Z" transform="translate(-292.058 -404.013)"/><path class="r" d="M327.031,458.751l-4.385,6.735c-.595.3-1.154,1.357-1.624,2.85-.137.44-.274.922-.4,1.428a71.146,71.146,0,0,0-1.345,7.788.924.924,0,0,1-.048.357c-.2,1.654-.369,3.278-.506,4.712a39.225,39.225,0,0,1-5.592-2.475l-.113-.06a40.608,40.608,0,0,1-7.925-5.61l-.2-.184a37.8,37.8,0,0,1-3.457-3.57c-.143-.161-.28-.327-.416-.494.065-.309.131-.595.2-.928.339-1.577.714-3.195,1.124-4.843a58.633,58.633,0,0,1,2.023-6.663,1.835,1.835,0,0,1,.077-.19c2.106-5.42,3.623-5.117,3.623-5.117l9.894-1.594,6.247-1.011-.2.113a6.337,6.337,0,0,0-1.719,1.832l-.173.292c-.071.113-.137.238-.208.363a10.547,10.547,0,0,0-.821,2.082,2.19,2.19,0,0,0,.143,1.7c.595,1.154,2.285,1.785,3.671,2.13l.232.059A14.892,14.892,0,0,0,327.031,458.751Z" transform="translate(-291.775 -404.021)"/><path class="h" d="M389.965,469.741l-.244-5.283c1.041-8.329-1.041-8.847-1.041-8.847l-2.475-1.19h-.065l-9.953-4.825-.387-.19-.119-.054h0l-1.3-.631h0l-.821-.4-1.535-.744-.518-.25v2.064c0,.595.054,1.291.1,2.1.107,2.035.3,4.759.654,7.972.2,1.862.446,3.9.756,6.08.184,1.291.315,2.576.4,3.831a67.422,67.422,0,0,1-.393,12.672l.541-.173a39.843,39.843,0,0,0,4.307-1.725h0a39.542,39.542,0,0,0,7.675-4.712l.107-.077a39.7,39.7,0,0,0,4.319-3.921Z" transform="translate(-320.327 -402.988)"/><path class="r" d="M390.837,469.721l-.244-5.295c1.041-8.329-1.041-8.847-1.041-8.847l-2.975-1.44h-.06l-9.983-4.843-.458-.22-.089-.042-.732-.357-.97-.47-1.916-.928v.845h0v1.047c0,.595.054,1.374.107,2.261.1,1.9.28,4.385.595,7.342.214,2.029.482,4.284.833,6.711q.274,1.945.393,3.849a67.338,67.338,0,0,1-.369,12.494,39.858,39.858,0,0,0,4.307-1.725h0a39.538,39.538,0,0,0,7.675-4.712l.107-.077a39.707,39.707,0,0,0,4.319-3.921q.262-.262.5-.535Z" transform="translate(-320.676 -402.968)"/><path class="h" d="M325.907,392.522c-.595.821-.547,1.951-.815,2.975-.637,2.326-3.159,3.784-3.736,6.128-.339,1.368.054,2.82-.178,4.212-.422,2.564-2.766,4.3-4.075,6.544a8.829,8.829,0,0,0-.541,7.675,12.3,12.3,0,0,1,.756,1.94,7.085,7.085,0,0,1-.184,2.975c-.446,2.118-.9,4.45.119,6.36a6.087,6.087,0,0,0,4.456,2.856,17.32,17.32,0,0,0,5.456-.25,15.784,15.784,0,0,0,5.7-1.666l-6.443-15.552a12.979,12.979,0,0,1-1.309-4.9,10.76,10.76,0,0,1,.8-3.653,31.651,31.651,0,0,1,5.354-9.251c.934,1.083.863,2.731,1.642,3.933a6.205,6.205,0,0,0,2.653,1.981,87.906,87.906,0,0,0,9.394,3.927,1.232,1.232,0,0,1,.916,1.832l-2.427,10.019c-.535,2.207-1.005,4.76.369,6.544s4.474,2.63,4.492,4.932a7.89,7.89,0,0,0,0,1.095c.161,1.077,1.44,1.594,2.529,1.648a7.538,7.538,0,0,0,7.562-6.17c.595-3.939-2.011-7.568-3.1-11.405-1.832-6.455.595-14.029-3-19.7-2.915-4.6-8.228-5.848-13.273-6.419C335.479,390.719,328.4,389.232,325.907,392.522Z" transform="translate(-297.814 -379.943)"/><path class="p" d="M325.907,391.522c-.595.821-.547,1.951-.815,2.975-.637,2.326-3.159,3.784-3.736,6.128-.339,1.368.054,2.82-.178,4.212-.422,2.564-2.766,4.3-4.075,6.544a8.829,8.829,0,0,0-.541,7.675,12.3,12.3,0,0,1,.756,1.939,7.086,7.086,0,0,1-.184,2.975c-.446,2.118-.9,4.45.119,6.36a6.087,6.087,0,0,0,4.456,2.856,17.32,17.32,0,0,0,5.456-.25,15.783,15.783,0,0,0,5.7-1.666l-6.443-15.552a12.978,12.978,0,0,1-1.309-4.9,10.76,10.76,0,0,1,.8-3.653,31.65,31.65,0,0,1,5.355-9.251c.934,1.083.863,2.731,1.642,3.933a6.205,6.205,0,0,0,2.653,1.981,87.894,87.894,0,0,0,9.394,3.927,1.232,1.232,0,0,1,.916,1.832l-2.427,10.019c-.535,2.207-1.005,4.76.369,6.544s4.474,2.63,4.492,4.932a7.889,7.889,0,0,0,0,1.095c.161,1.077,1.44,1.594,2.529,1.648a7.538,7.538,0,0,0,7.562-6.17c.595-3.939-2.011-7.568-3.1-11.405-1.832-6.455.595-14.029-3-19.7-2.915-4.6-8.228-5.848-13.273-6.419C335.479,389.719,328.4,388.232,325.907,391.522Z" transform="translate(-297.814 -379.538)"/></g><g class="a" transform="translate(53.574 333.802)"><path class="k" d="M366.392,654.255a40.265,40.265,0,0,1-9.739,26.326c-.309.363-.631.72-.958,1.071q-.244.274-.5.535a39.684,39.684,0,0,1-4.319,3.921l-.107.077a39.532,39.532,0,0,1-7.675,4.712h0a39.843,39.843,0,0,1-4.307,1.725l-.541.173c-.333.113-.678.214-1.017.309l-.137.042a40.652,40.652,0,0,1-22.34,0h-.06c-.595-.172-1.19-.351-1.737-.547l-.506-.179a39.234,39.234,0,0,1-5.592-2.475l-.113-.06a40.608,40.608,0,0,1-7.925-5.61l-.2-.184a37.8,37.8,0,0,1-3.457-3.57c-.143-.161-.28-.327-.416-.494-.262-.309-.512-.631-.762-.952a40.456,40.456,0,1,1,72.4-24.821Z" transform="translate(-285.48 -613.798)"/><path class="s" d="M361.928,685.6l-.244-5.354c1.041-8.466-1.041-9-1.041-9l-2.975-1.464-.06-.03-9.983-4.92-.458-.226-.059-.244s.2-.595-.791-.7a3.624,3.624,0,0,1-.25-1.517c.1-1.142.964-2.041,1.636-2.975a12.22,12.22,0,0,0,1.957-8.668,20.388,20.388,0,0,0-3.32-8.377l-.19-.28a10.079,10.079,0,0,0,.351-2.63c0-6.848-6.925-12.4-15.468-12.4-7.734,0-14.177,4.575-15.3,10.542a5.422,5.422,0,0,0-.47.738c-1.571,2.939.857,5.134.934,8.067.054,2.023-1.3,3.754-2.38,5.468s-1.874,3.992-.767,5.682c.363.559.91.982,1.237,1.565,1.148,2.029-.762,4.355-1.458,6.58a6.3,6.3,0,0,0-.19.791l-4.593.75s-1.517-.309-3.623,5.2a1.881,1.881,0,0,0-.077.2,60.316,60.316,0,0,0-2.023,6.776q-.616,2.517-1.124,4.92c-.071.315-.137.631-.2.946.137.167.274.339.416.5a38.16,38.16,0,0,0,3.457,3.641l.2.19a40.62,40.62,0,0,0,7.925,5.706l.113.06a38.925,38.925,0,0,0,5.592,2.517l.506.178c.595.2,1.154.381,1.737.559a2.17,2.17,0,0,1,.048.274v-.262a40.016,40.016,0,0,0,22.34,0l.137-.042c.339-.1.684-.2,1.017-.315l.541-.172a40.121,40.121,0,0,0,11.982-6.544l.107-.077a39.94,39.94,0,0,0,4.319-3.986q.262-.262.5-.541Z" transform="translate(-291.767 -619.077)"/><path class="r" d="M324.045,653.873c.054,1.993-1.3,3.695-2.38,5.354s-1.874,3.927-.767,5.586c.363.547.91.97,1.237,1.541,1.148,1.993-.762,4.284-1.458,6.473a8.126,8.126,0,0,0,1.821,7.407,19.71,19.71,0,0,0,6.378,4.658,56.917,56.917,0,0,0,15.778,5.616c2.879.529,5.949.767,8.65-.387a9.2,9.2,0,0,0,5.194-10.114c-.684-3.129-2.975-5.646-4.165-8.6a4.027,4.027,0,0,1-.393-1.862c.1-1.125.964-2,1.636-2.915a11.9,11.9,0,0,0,1.928-8.466,19.872,19.872,0,0,0-3.32-8.246,9.032,9.032,0,0,0-2.38-2.618,10.441,10.441,0,0,0-4.45-1.345c-6.461-.9-13.154-1.892-19.669-2.225-2.058-.107-3.57.3-4.587,2.225C321.546,648.828,323.967,650.988,324.045,653.873Z" transform="translate(-299.611 -625.916)"/><path class="q" d="M361.937,683.993l-12.262,17.438L337.7,700.39s-.393,4.165-5.206-10.929c-2.689-8.442,2.778-5.509,3.855-7.847s2.975-4.4,3.135-6.128a10.817,10.817,0,0,0-.744-5.807l13.011-1.559a9.709,9.709,0,0,0-.214,5.432C353.173,680.322,361.937,683.993,361.937,683.993Z" transform="translate(-304.228 -635.802)"/><ellipse class="r" cx="15.468" cy="12.196" rx="15.468" ry="12.196" transform="translate(23.798 8.931)"/><path class="h" d="M356.287,673.546a13.006,13.006,0,0,1-12.054,1.94,10.817,10.817,0,0,0-.744-5.807L356.5,668.12A9.709,9.709,0,0,0,356.287,673.546Z" transform="translate(-308.977 -635.802)"/><circle class="q" cx="13.011" cy="13.011" r="13.011" transform="translate(26.451 13.839)"/><path class="h" d="M356.381,694.717l-.3-1.19-.262-1.047-.387-1.547-.071-.286-.059-.238s.309-.934-1.731-.631l-.381.065c-.321.065-.7.155-1.124.274l-.387.119-.512.161h0A11.156,11.156,0,0,0,346.844,693a9.726,9.726,0,0,0-1.446,1.749c-.042.06-.071.113-.107.161a5.608,5.608,0,0,0-.375.69c0,4.688-4.688,10.411-4.688,10.411l-4.575-6.61-.089-.131-1.089-1.583-.387-.512-.131-.178-2.38-3.195-.595-.8-.2-.268-.291-.387-.684-.91-2.677,1.565-3.57,2.082-2.082,13.535V709l.065,1.118.434,7.354v.1l-.762,3.046.113.059a39.229,39.229,0,0,0,5.592,2.475l.506.178c.595.2,1.154.375,1.737.547a2.108,2.108,0,0,1,.048.268v-.256a40.654,40.654,0,0,0,22.34,0l.137-.042c.339-.1.684-.2,1.017-.309l.541-.173a39.874,39.874,0,0,0,4.307-1.725l.5-10.649.357-7.681v-.44Z" transform="translate(-299.957 -644.55)"/><path class="r" d="M352.187,714.857a4.107,4.107,0,0,0-.042-.714c-.042-.238-.036-.446-.065-.672s-.054-.452-.083-.678-.071-.452-.113-.678-.083-.452-.131-.678a1.02,1.02,0,0,0-.048-.226c-.065-.3-.137-.595-.214-.9s-.125-.482-.2-.72a1.013,1.013,0,0,0-.1-.315c-.036-.1-.1-.345-.155-.518l-.107-.333c-.048-.149-.1-.3-.149-.446-.089-.268-.184-.53-.28-.8s-.2-.529-.3-.791c-.2-.535-.422-1.065-.643-1.594-.863-2.058-1.832-4.087-2.725-6.1a33.722,33.722,0,0,1-1.273-3.23l-.113.161a6.864,6.864,0,0,0-.482.857c0,4.682-4.688,10.411-4.688,10.411l-4.718-6.872-4.129,6.348c-.595.315-1.19,1.4-1.654,2.939-.131.417-.256.869-.375,1.351-.083.321-.161.66-.232,1-.042.173-.077.345-.113.524l-.107.541v.083c-.071.369-.143.75-.208,1.136s-.143.833-.208,1.255q-.071.411-.125.821c-.083.529-.155,1.065-.226,1.594-.042.309-.083.595-.119.922l-.143,1.19c.3.976.643,1.94.994,2.885a4.8,4.8,0,0,1,.387,1.636,40.653,40.653,0,0,0,22.34,0,.227.227,0,0,1,0-.06,7.084,7.084,0,0,1-.143-1.624h0a44.624,44.624,0,0,1,.595-4.551,16.648,16.648,0,0,0,.113-2.237v-.268C352.2,715.286,352.193,715.072,352.187,714.857Zm0,0a4.107,4.107,0,0,0-.042-.714c-.042-.238-.036-.446-.065-.672s-.054-.452-.083-.678-.071-.452-.113-.678-.083-.452-.131-.678a1.02,1.02,0,0,0-.048-.226c-.065-.3-.137-.595-.214-.9s-.125-.482-.2-.72a1.013,1.013,0,0,0-.1-.315c-.036-.1-.1-.345-.155-.518l-.107-.333c-.048-.149-.1-.3-.149-.446-.089-.268-.184-.53-.28-.8s-.2-.529-.3-.791c-.2-.535-.422-1.065-.643-1.594-.863-2.058-1.832-4.087-2.725-6.1a33.722,33.722,0,0,1-1.273-3.23l-.113.161a6.864,6.864,0,0,0-.482.857c0,4.682-4.688,10.411-4.688,10.411l-4.718-6.872-4.129,6.348c-.595.315-1.19,1.4-1.654,2.939-.131.417-.256.869-.375,1.351-.083.321-.161.66-.232,1-.042.173-.077.345-.113.524l-.107.541v.083c-.071.369-.143.75-.208,1.136s-.143.833-.208,1.255q-.071.411-.125.821c-.083.529-.155,1.065-.226,1.594-.042.309-.083.595-.119.922l-.143,1.19c.3.976.643,1.94.994,2.885a4.8,4.8,0,0,1,.387,1.636,40.653,40.653,0,0,0,22.34,0,.227.227,0,0,1,0-.06,7.084,7.084,0,0,1-.143-1.624h0a44.624,44.624,0,0,1,.595-4.551,16.648,16.648,0,0,0,.113-2.237v-.268C352.2,715.286,352.193,715.072,352.187,714.857Zm0,0a4.107,4.107,0,0,0-.042-.714c-.042-.238-.036-.446-.065-.672s-.054-.452-.083-.678-.071-.452-.113-.678-.083-.452-.131-.678a1.02,1.02,0,0,0-.048-.226c-.065-.3-.137-.595-.214-.9s-.125-.482-.2-.72a1.013,1.013,0,0,0-.1-.315c-.036-.1-.1-.345-.155-.518l-.107-.333c-.048-.149-.1-.3-.149-.446-.089-.268-.184-.53-.28-.8s-.2-.529-.3-.791c-.2-.535-.422-1.065-.643-1.594-.863-2.058-1.832-4.087-2.725-6.1a33.722,33.722,0,0,1-1.273-3.23l-.113.161a6.864,6.864,0,0,0-.482.857c0,4.682-4.688,10.411-4.688,10.411l-4.718-6.872-4.129,6.348c-.595.315-1.19,1.4-1.654,2.939-.131.417-.256.869-.375,1.351-.083.321-.161.66-.232,1-.042.173-.077.345-.113.524l-.107.541v.083c-.071.369-.143.75-.208,1.136s-.143.833-.208,1.255q-.071.411-.125.821c-.083.529-.155,1.065-.226,1.594-.042.309-.083.595-.119.922l-.143,1.19c.3.976.643,1.94.994,2.885a4.8,4.8,0,0,1,.387,1.636,40.653,40.653,0,0,0,22.34,0,.227.227,0,0,1,0-.06,7.084,7.084,0,0,1-.143-1.624h0a44.624,44.624,0,0,1,.595-4.551,16.648,16.648,0,0,0,.113-2.237v-.268C352.2,715.286,352.193,715.072,352.187,714.857Zm6.306-11.167-2.124-8.478-.363-1.452-.1-.4h0l-.518-2.07a.388.388,0,0,0,0-.054h0a.476.476,0,0,0-.042-.268c-.077-.155-.274-.315-.732-.357a3.71,3.71,0,0,0-.524,0h0a9.063,9.063,0,0,0-1.529.286c-.244.065-.506.137-.785.226l-.512.161h-.048a11.35,11.35,0,0,0-3.748,2.082,10.114,10.114,0,0,0-1.9,2.106l-.113.161a6.868,6.868,0,0,0-.482.857c0,4.682-4.688,10.411-4.688,10.411l-4.718-6.872-.268-.387-.048-.065-.684-1.005-.518-.69-.137-.179-2.439-3.254h0L330.7,693.4v-.036L330.43,693l-.512-.678-1.785,1.041-4.462,2.6-2.059,13.392v.143l.06.976.44,7.455v.422l-.672,2.683a39.233,39.233,0,0,0,5.592,2.475l.506.178c.595.2,1.154.375,1.737.547a2.1,2.1,0,0,1,.048.268v-.256a40.654,40.654,0,0,0,22.34,0l.137-.042c.339-.1.684-.2,1.017-.309l.541-.173A39.881,39.881,0,0,0,357.666,722h0l.494-10.638.357-7.6Zm-29.259,20.543a2.1,2.1,0,0,1,.048.268v-.256Zm22.953-9.376a4.107,4.107,0,0,0-.042-.714c-.042-.238-.036-.446-.065-.672s-.054-.452-.083-.678-.071-.452-.113-.678-.083-.452-.131-.678a1.02,1.02,0,0,0-.048-.226c-.065-.3-.137-.595-.214-.9s-.125-.482-.2-.72a1.013,1.013,0,0,0-.1-.315c-.036-.1-.1-.345-.155-.518l-.107-.333c-.048-.149-.1-.3-.149-.446-.089-.268-.184-.53-.28-.8s-.2-.529-.3-.791c-.2-.535-.422-1.065-.643-1.594-.863-2.058-1.832-4.087-2.725-6.1a33.722,33.722,0,0,1-1.273-3.23l-.113.161a6.864,6.864,0,0,0-.482.857c0,4.682-4.688,10.411-4.688,10.411l-4.718-6.872-4.129,6.348c-.595.315-1.19,1.4-1.654,2.939-.131.417-.256.869-.375,1.351-.083.321-.161.66-.232,1-.042.173-.077.345-.113.524l-.107.541v.083c-.071.369-.143.75-.208,1.136s-.143.833-.208,1.255q-.071.411-.125.821c-.083.529-.155,1.065-.226,1.594-.042.309-.083.595-.119.922l-.143,1.19c.3.976.643,1.94.994,2.885a4.8,4.8,0,0,1,.387,1.636,40.653,40.653,0,0,0,22.34,0,.227.227,0,0,1,0-.06,7.084,7.084,0,0,1-.143-1.624h0a44.624,44.624,0,0,1,.595-4.551,16.648,16.648,0,0,0,.113-2.237v-.268C352.2,715.286,352.193,715.072,352.187,714.857Zm0,0a4.107,4.107,0,0,0-.042-.714c-.042-.238-.036-.446-.065-.672s-.054-.452-.083-.678-.071-.452-.113-.678-.083-.452-.131-.678a1.02,1.02,0,0,0-.048-.226c-.065-.3-.137-.595-.214-.9s-.125-.482-.2-.72a1.013,1.013,0,0,0-.1-.315c-.036-.1-.1-.345-.155-.518l-.107-.333c-.048-.149-.1-.3-.149-.446-.089-.268-.184-.53-.28-.8s-.2-.529-.3-.791c-.2-.535-.422-1.065-.643-1.594-.863-2.058-1.832-4.087-2.725-6.1a33.722,33.722,0,0,1-1.273-3.23l-.113.161a6.864,6.864,0,0,0-.482.857c0,4.682-4.688,10.411-4.688,10.411l-4.718-6.872-4.129,6.348c-.595.315-1.19,1.4-1.654,2.939-.131.417-.256.869-.375,1.351-.083.321-.161.66-.232,1-.042.173-.077.345-.113.524l-.107.541v.083c-.071.369-.143.75-.208,1.136s-.143.833-.208,1.255q-.071.411-.125.821c-.083.529-.155,1.065-.226,1.594-.042.309-.083.595-.119.922l-.143,1.19c.3.976.643,1.94.994,2.885a4.8,4.8,0,0,1,.387,1.636,40.653,40.653,0,0,0,22.34,0,.227.227,0,0,1,0-.06,7.084,7.084,0,0,1-.143-1.624h0a44.624,44.624,0,0,1,.595-4.551,16.648,16.648,0,0,0,.113-2.237v-.268C352.2,715.286,352.193,715.072,352.187,714.857Zm0,0a4.107,4.107,0,0,0-.042-.714c-.042-.238-.036-.446-.065-.672s-.054-.452-.083-.678-.071-.452-.113-.678-.083-.452-.131-.678a1.02,1.02,0,0,0-.048-.226c-.065-.3-.137-.595-.214-.9s-.125-.482-.2-.72a1.013,1.013,0,0,0-.1-.315c-.036-.1-.1-.345-.155-.518l-.107-.333c-.048-.149-.1-.3-.149-.446-.089-.268-.184-.53-.28-.8s-.2-.529-.3-.791c-.2-.535-.422-1.065-.643-1.594-.863-2.058-1.832-4.087-2.725-6.1a33.722,33.722,0,0,1-1.273-3.23l-.113.161a6.864,6.864,0,0,0-.482.857c0,4.682-4.688,10.411-4.688,10.411l-4.718-6.872-4.129,6.348c-.595.315-1.19,1.4-1.654,2.939-.131.417-.256.869-.375,1.351-.083.321-.161.66-.232,1-.042.173-.077.345-.113.524l-.107.541v.083c-.071.369-.143.75-.208,1.136s-.143.833-.208,1.255q-.071.411-.125.821c-.083.529-.155,1.065-.226,1.594-.042.309-.083.595-.119.922l-.143,1.19c.3.976.643,1.94.994,2.885a4.8,4.8,0,0,1,.387,1.636,40.653,40.653,0,0,0,22.34,0,.227.227,0,0,1,0-.06,7.084,7.084,0,0,1-.143-1.624h0a44.624,44.624,0,0,1,.595-4.551,16.648,16.648,0,0,0,.113-2.237v-.268C352.2,715.286,352.193,715.072,352.187,714.857Zm0,0a4.107,4.107,0,0,0-.042-.714c-.042-.238-.036-.446-.065-.672s-.054-.452-.083-.678-.071-.452-.113-.678-.083-.452-.131-.678a1.02,1.02,0,0,0-.048-.226c-.065-.3-.137-.595-.214-.9s-.125-.482-.2-.72a1.013,1.013,0,0,0-.1-.315c-.036-.1-.1-.345-.155-.518l-.107-.333c-.048-.149-.1-.3-.149-.446-.089-.268-.184-.53-.28-.8s-.2-.529-.3-.791c-.2-.535-.422-1.065-.643-1.594-.863-2.058-1.832-4.087-2.725-6.1a33.722,33.722,0,0,1-1.273-3.23l-.113.161a6.864,6.864,0,0,0-.482.857c0,4.682-4.688,10.411-4.688,10.411l-4.718-6.872-4.129,6.348c-.595.315-1.19,1.4-1.654,2.939-.131.417-.256.869-.375,1.351-.083.321-.161.66-.232,1-.042.173-.077.345-.113.524l-.107.541v.083c-.071.369-.143.75-.208,1.136s-.143.833-.208,1.255q-.071.411-.125.821c-.083.529-.155,1.065-.226,1.594-.042.309-.083.595-.119.922l-.143,1.19c.3.976.643,1.94.994,2.885a4.8,4.8,0,0,1,.387,1.636,40.653,40.653,0,0,0,22.34,0,.227.227,0,0,1,0-.06,7.084,7.084,0,0,1-.143-1.624h0a44.624,44.624,0,0,1,.595-4.551,16.648,16.648,0,0,0,.113-2.237v-.268C352.2,715.286,352.193,715.072,352.187,714.857Zm0,0a4.107,4.107,0,0,0-.042-.714c-.042-.238-.036-.446-.065-.672s-.054-.452-.083-.678-.071-.452-.113-.678-.083-.452-.131-.678a1.02,1.02,0,0,0-.048-.226c-.065-.3-.137-.595-.214-.9s-.125-.482-.2-.72a1.013,1.013,0,0,0-.1-.315c-.036-.1-.1-.345-.155-.518l-.107-.333c-.048-.149-.1-.3-.149-.446-.089-.268-.184-.53-.28-.8s-.2-.529-.3-.791c-.2-.535-.422-1.065-.643-1.594-.863-2.058-1.832-4.087-2.725-6.1a33.722,33.722,0,0,1-1.273-3.23l-.113.161a6.864,6.864,0,0,0-.482.857c0,4.682-4.688,10.411-4.688,10.411l-4.718-6.872-4.129,6.348c-.595.315-1.19,1.4-1.654,2.939-.131.417-.256.869-.375,1.351-.083.321-.161.66-.232,1-.042.173-.077.345-.113.524l-.107.541v.083c-.071.369-.143.75-.208,1.136s-.143.833-.208,1.255q-.071.411-.125.821c-.083.529-.155,1.065-.226,1.594-.042.309-.083.595-.119.922l-.143,1.19c.3.976.643,1.94.994,2.885a4.8,4.8,0,0,1,.387,1.636,40.653,40.653,0,0,0,22.34,0,.227.227,0,0,1,0-.06,7.084,7.084,0,0,1-.143-1.624h0a44.624,44.624,0,0,1,.595-4.551,16.648,16.648,0,0,0,.113-2.237v-.268C352.2,715.286,352.193,715.072,352.187,714.857Zm0,0a4.107,4.107,0,0,0-.042-.714c-.042-.238-.036-.446-.065-.672s-.054-.452-.083-.678-.071-.452-.113-.678-.083-.452-.131-.678a1.02,1.02,0,0,0-.048-.226c-.065-.3-.137-.595-.214-.9s-.125-.482-.2-.72a1.013,1.013,0,0,0-.1-.315c-.036-.1-.1-.345-.155-.518l-.107-.333c-.048-.149-.1-.3-.149-.446-.089-.268-.184-.53-.28-.8s-.2-.529-.3-.791c-.2-.535-.422-1.065-.643-1.594-.863-2.058-1.832-4.087-2.725-6.1a33.722,33.722,0,0,1-1.273-3.23l-.113.161a6.864,6.864,0,0,0-.482.857c0,4.682-4.688,10.411-4.688,10.411l-4.718-6.872-4.129,6.348c-.595.315-1.19,1.4-1.654,2.939-.131.417-.256.869-.375,1.351-.083.321-.161.66-.232,1-.042.173-.077.345-.113.524l-.107.541v.083c-.071.369-.143.75-.208,1.136s-.143.833-.208,1.255q-.071.411-.125.821c-.083.529-.155,1.065-.226,1.594-.042.309-.083.595-.119.922l-.143,1.19c.3.976.643,1.94.994,2.885a4.8,4.8,0,0,1,.387,1.636,40.653,40.653,0,0,0,22.34,0,.227.227,0,0,1,0-.06,7.084,7.084,0,0,1-.143-1.624h0a44.624,44.624,0,0,1,.595-4.551,16.648,16.648,0,0,0,.113-2.237v-.268C352.2,715.286,352.193,715.072,352.187,714.857Zm0,0a4.107,4.107,0,0,0-.042-.714c-.042-.238-.036-.446-.065-.672s-.054-.452-.083-.678-.071-.452-.113-.678-.083-.452-.131-.678a1.02,1.02,0,0,0-.048-.226c-.065-.3-.137-.595-.214-.9s-.125-.482-.2-.72a1.013,1.013,0,0,0-.1-.315c-.036-.1-.1-.345-.155-.518l-.107-.333c-.048-.149-.1-.3-.149-.446-.089-.268-.184-.53-.28-.8s-.2-.529-.3-.791c-.2-.535-.422-1.065-.643-1.594-.863-2.058-1.832-4.087-2.725-6.1a33.722,33.722,0,0,1-1.273-3.23l-.113.161a6.864,6.864,0,0,0-.482.857c0,4.682-4.688,10.411-4.688,10.411l-4.718-6.872-4.129,6.348c-.595.315-1.19,1.4-1.654,2.939-.131.417-.256.869-.375,1.351-.083.321-.161.66-.232,1-.042.173-.077.345-.113.524l-.107.541v.083c-.071.369-.143.75-.208,1.136s-.143.833-.208,1.255q-.071.411-.125.821c-.083.529-.155,1.065-.226,1.594-.042.309-.083.595-.119.922l-.143,1.19c.3.976.643,1.94.994,2.885a4.8,4.8,0,0,1,.387,1.636,40.653,40.653,0,0,0,22.34,0,.227.227,0,0,1,0-.06,7.084,7.084,0,0,1-.143-1.624h0a44.624,44.624,0,0,1,.595-4.551,16.648,16.648,0,0,0,.113-2.237v-.268C352.2,715.286,352.193,715.072,352.187,714.857Zm0,0a4.107,4.107,0,0,0-.042-.714c-.042-.238-.036-.446-.065-.672s-.054-.452-.083-.678-.071-.452-.113-.678-.083-.452-.131-.678a1.02,1.02,0,0,0-.048-.226c-.065-.3-.137-.595-.214-.9s-.125-.482-.2-.72a1.013,1.013,0,0,0-.1-.315c-.036-.1-.1-.345-.155-.518l-.107-.333c-.048-.149-.1-.3-.149-.446-.089-.268-.184-.53-.28-.8s-.2-.529-.3-.791c-.2-.535-.422-1.065-.643-1.594-.863-2.058-1.832-4.087-2.725-6.1a33.722,33.722,0,0,1-1.273-3.23l-.113.161a6.864,6.864,0,0,0-.482.857c0,4.682-4.688,10.411-4.688,10.411l-4.718-6.872-4.129,6.348c-.595.315-1.19,1.4-1.654,2.939-.131.417-.256.869-.375,1.351-.083.321-.161.66-.232,1-.042.173-.077.345-.113.524l-.107.541v.083c-.071.369-.143.75-.208,1.136s-.143.833-.208,1.255q-.071.411-.125.821c-.083.529-.155,1.065-.226,1.594-.042.309-.083.595-.119.922l-.143,1.19c.3.976.643,1.94.994,2.885a4.8,4.8,0,0,1,.387,1.636,40.653,40.653,0,0,0,22.34,0,.227.227,0,0,1,0-.06,7.084,7.084,0,0,1-.143-1.624h0a44.624,44.624,0,0,1,.595-4.551,16.648,16.648,0,0,0,.113-2.237v-.268C352.2,715.286,352.193,715.072,352.187,714.857Z" transform="translate(-300.046 -644.909)"/><path class="h" d="M327.665,699.731l-.4-.054a14.475,14.475,0,0,1-1.785-.357l-.22-.06c-1.452-.41-3.04-1.148-3.4-2.445a2.315,2.315,0,0,1,.036-1.267,10.868,10.868,0,0,1,.809-2.047v-.036a2.82,2.82,0,0,1,.149-.268,5.95,5.95,0,0,1,2.148-2.338l-.714.113-6.045.982-9.37,1.511s-1.666-.333-3.933,5.914a.966.966,0,0,1-.077.232c-.547,1.529-1.124,3.439-1.719,5.825-.411,1.654-.785,3.278-1.13,4.855-.1.476-.2.946-.3,1.41a37.79,37.79,0,0,0,3.457,3.57l.2.184a40.611,40.611,0,0,0,7.925,5.61l.113.059A39.229,39.229,0,0,0,319,723.6l.506.178c.107-1.1.226-2.32.369-3.57a1.016,1.016,0,0,1,.048-.375l.143-1.19c.036-.3.077-.595.119-.922.071-.53.143-1.065.226-1.594q.054-.411.125-.821c.065-.422.137-.845.208-1.255s.137-.768.208-1.136v-.083l.107-.541c.036-.178.071-.351.113-.524.071-.339.149-.678.232-1,.119-.482.244-.934.375-1.351.476-1.541,1.029-2.624,1.654-2.939l4.129-6.348.173-.268.077-.119Z" transform="translate(-292.058 -645.013)"/><path class="t" d="M327.031,699.751l-4.385,6.735c-.595.3-1.154,1.356-1.624,2.85-.137.44-.274.922-.4,1.428a71.149,71.149,0,0,0-1.345,7.788.923.923,0,0,1-.048.357c-.2,1.654-.369,3.278-.506,4.712a39.232,39.232,0,0,1-5.592-2.475l-.113-.059a40.607,40.607,0,0,1-7.925-5.61l-.2-.185a37.784,37.784,0,0,1-3.457-3.57c-.143-.161-.28-.327-.416-.494.065-.309.131-.595.2-.928.339-1.577.714-3.195,1.124-4.843a58.617,58.617,0,0,1,2.023-6.663,1.824,1.824,0,0,1,.077-.19c2.106-5.42,3.623-5.116,3.623-5.116l9.894-1.594,6.247-1.011-.2.113a6.335,6.335,0,0,0-1.719,1.832l-.173.291c-.071.113-.137.238-.208.363a10.547,10.547,0,0,0-.821,2.082,2.19,2.19,0,0,0,.143,1.7c.595,1.154,2.285,1.785,3.671,2.13l.232.059A14.925,14.925,0,0,0,327.031,699.751Z" transform="translate(-291.775 -645.021)"/><path class="h" d="M389.965,710.741l-.244-5.283c1.041-8.329-1.041-8.847-1.041-8.847l-2.475-1.19h-.065l-9.953-4.825-.387-.19-.119-.054h0l-1.3-.631h0l-.821-.4-1.535-.744-.518-.25v2.064c0,.595.054,1.291.1,2.1.107,2.035.3,4.76.654,7.972.2,1.862.446,3.9.756,6.08.184,1.291.315,2.576.4,3.831a67.421,67.421,0,0,1-.393,12.672l.541-.172a39.868,39.868,0,0,0,4.307-1.725h0a39.539,39.539,0,0,0,7.675-4.712l.107-.077a39.707,39.707,0,0,0,4.319-3.921Z" transform="translate(-320.327 -643.988)"/><path class="t" d="M390.837,710.721l-.244-5.295c1.041-8.329-1.041-8.847-1.041-8.847l-2.975-1.44h-.06l-9.983-4.843-.458-.22-.089-.042-.732-.357-.97-.47-1.916-.928v.845h0v1.047c0,.595.054,1.374.107,2.261.1,1.9.28,4.385.595,7.342.214,2.029.482,4.284.833,6.711q.274,1.945.393,3.849a67.338,67.338,0,0,1-.369,12.494,40.283,40.283,0,0,0,11.982-6.437l.107-.077a39.7,39.7,0,0,0,4.319-3.921q.262-.262.5-.536Z" transform="translate(-320.676 -643.968)"/><path class="h" d="M339.962,645.149c1.856-.315,3.724-.994,5.569-.595,1.547.321,2.838,1.351,4.254,2.064a11.012,11.012,0,0,0,4.391,1.16,2.582,2.582,0,0,0,1.612-.315,2.5,2.5,0,0,0,.72-2.451c-.357-2.534-1.939-4.712-3.57-6.687a13.087,13.087,0,0,0-2.237-2.267c-2.136-1.577-4.962-1.844-7.609-1.725a19.064,19.064,0,0,0-8.716,2.237c-1.785,1.023-5.878,4.248-4.456,6.58C331.413,645.589,337.624,645.548,339.962,645.149Z" transform="translate(-303.361 -622.106)"/><path class="r" d="M339.962,644.149c1.856-.315,3.724-.994,5.569-.595,1.547.321,2.838,1.351,4.254,2.064a11.012,11.012,0,0,0,4.391,1.16,2.582,2.582,0,0,0,1.612-.315,2.5,2.5,0,0,0,.72-2.451c-.357-2.534-1.939-4.712-3.57-6.687a13.087,13.087,0,0,0-2.237-2.267c-2.136-1.577-4.962-1.844-7.609-1.725a19.063,19.063,0,0,0-8.716,2.237c-1.785,1.023-5.878,4.248-4.456,6.58C331.413,644.589,337.624,644.548,339.962,644.149Z" transform="translate(-303.361 -621.701)"/></g><path class="u" d="M620.609,490.09h.089c.131,3.986.7,7.591,1.785,8.591,2.594,2.38,13.35-2.38,12.613-5.259-.149-.595-.4-1.571-.714-2.8,2.9-.363,5.384-1.19,6.372-2.891l1.868,5.759.131.411h.143c1.231,11.673,4.022,35.911,6.253,39.159,2.975,4.3,6.4,22.941,6.4,22.941l6.4,38.237s2.463,22.013,3.939,24.393a2.766,2.766,0,0,0,1.618.839c-.863,2.582-2.1,5.6-3.57,7.282-2.975,3.344-6.89,10.037-10.334,9.561s-4.426,6.693,1.969,7.645c3.54.53,9.186-.113,13.523-.791,0,1.916,1.333,4.117,4.682,4.617,6.4.958,19.681-1.91,19.681-1.91s11.3-4.759,11.81-8.127c.357-2.439-1.374-12.232-2.338-17.366,1.785-2.862-.119-27.558-.119-27.558L699.356,545.5s1.969-26.284,0-31.068c-1.232-2.975-1.69-16.658-1.862-26.445l2.38.155a4.383,4.383,0,0,0,.369-.518l.595.042s2.975-3.344.494-8.6c-1.826-3.909-1.481-21.555-1.19-30.342h0l.351-4.165a1.189,1.189,0,0,0,.292-.452,43.639,43.639,0,0,0,13.285-4.022,13.479,13.479,0,0,0,3.486-2.118c2.463-2.38.982-16.73-3.938-38.237s-9.347-19.6-9.347-19.6-11.81-.958-17.224-8.127S678,364.933,678,364.933h0c-.137-.94-.232-1.826-.3-2.653,0-.309-.048-.595-.065-.9a15.729,15.729,0,0,0,4.093-6.205c1.107-.595,2.469-.791,3.528-1.541a4.2,4.2,0,0,0,.732-.678,6.014,6.014,0,0,0,1.9-3.742,15.3,15.3,0,0,0-.22-4.694,11.375,11.375,0,0,0-7.508-10.3q-7.806-4.1-15.653-8.115a8.639,8.639,0,0,0-3.349-1.19c-2.094-.119-3.974,1.315-5.664,2.677a24.166,24.166,0,0,0-1.933,1.7,10.857,10.857,0,0,0-1.422,1.529c-1.975,2.647-2.814,7.633-1.946,10.941a1.5,1.5,0,0,0,1.589,1.339,15.338,15.338,0,0,0-1.636,6.9,15.647,15.647,0,0,0,7.264,13.142c0,.333,0,.66.03.976a34.891,34.891,0,0,1-.119,3.659s-13.089,7.074-14.558,10.417-6.889,5.735-6.889,5.735-10.334,5.259-10.334,23.9L620.122,434.1l-.982,50.183s.678-.595,1.785-1.44c-.036.333-.066.678-.1,1.029a56.637,56.637,0,0,0-.149,5.765Zm66.1,129.881c-.2.768-.5,1.785-.875,2.975-.167-.988-.333-1.963-.5-2.891.428-.042.886-.065,1.374-.083Z" transform="translate(-367.058 -162.975)"/><path class="v" d="M690.9,809.542s-1.9,8.531-4.76,11.845-6.61,9.953-9.918,9.477-4.266,6.634,1.9,7.58,18.925-1.892,18.925-1.892,10.9-4.76,11.369-8.055-2.844-20.377-2.844-20.377Z" transform="translate(-389.121 -358.709)"/><path class="w" d="M690.9,809.542s-1.9,8.531-4.76,11.845-6.61,9.953-9.918,9.477-4.266,6.634,1.9,7.58,18.925-1.892,18.925-1.892,10.9-4.76,11.369-8.055-2.844-20.377-2.844-20.377Z" transform="translate(-389.121 -358.709)"/><path class="v" d="M720.363,815.908s-1.9,8.531-4.76,11.845-6.628,9.953-9.93,9.477-4.266,6.634,1.9,7.579,18.955-1.9,18.955-1.9,10.9-4.76,11.369-8.055-2.844-20.377-2.844-20.377Z" transform="translate(-401.052 -361.284)"/><path class="x" d="M659.66,598.67s3.79,40.747,6.634,45.013,6.158,22.745,6.158,22.745l6.158,37.9s2.38,21.8,3.79,24.167,19,1.35,19,1.35l-10.935-125.5Z" transform="translate(-383.471 -273.869)"/><path class="w" d="M659.66,598.67s3.79,40.747,6.634,45.013,6.158,22.745,6.158,22.745l6.158,37.9s2.38,21.8,3.79,24.167,19,1.35,19,1.35l-10.935-125.5Z" transform="translate(-383.471 -273.869)"/><path class="x" d="M646.92,566l1.237,3.933,6.693,21.245.131.4h.036c.9.2,19.865,4.563,23.958,5.9a5.81,5.81,0,0,1,.648.244c1.9.946,4.266,35.06,4.266,35.06s1.422,32.222,2.38,34.59,4.76,51.165,7.109,49.749,19.425,0,19.425,0c1.9-1.9,0-27.48,0-27.48l-3.367-46.9s1.9-26.058,0-30.8-1.9-36.482-1.9-36.482L668.754,569.4l-3.748-.595Z" transform="translate(-378.31 -260.635)"/><path class="y" d="M649,571.709l6.693,21.245.161.417c.9.2,19.865,4.563,23.958,5.9h.41l-10.6-28.093-.3-.809-3.445.22Z" transform="translate(-379.153 -262.405)"/><path class="h" d="M694.021,406.73s-17.533,18.955-28.432,3.314l-10.423,7.11,1.9,10.9L650.9,510.494s16.111-.476,27.48,3.314a17.634,17.634,0,0,0,18.479-4.266l-1.874-72.488,4.266-22.269Z" transform="translate(-379.923 -196.122)"/><path class="v" d="M694.021,404.34s-17.533,18.955-28.432,3.314l-10.423,7.11,1.9,10.9L650.9,508.1s16.111-.476,27.48,3.314a17.634,17.634,0,0,0,18.479-4.266l-1.874-72.488,4.266-22.269Z" transform="translate(-379.923 -195.153)"/><g transform="translate(273.572 291.645)"><g transform="translate(0 0)"><path class="z" d="M617.68,522.36v2.987h-.952v-1.987h-3.48v1.987h-.958v-2.981l5.39-.006" transform="translate(-612.153 -520.409)"/><path class="z" d="M659.936,543.928H656.26a1.357,1.357,0,0,1-1-.988h5.67a1.363,1.363,0,0,1-1,.988" transform="translate(-655.26 -542.94)"/></g><g transform="translate(31.722 0.036)"><path class="z" d="M714.779,543a1.374,1.374,0,0,1-.994.982h-1.547l-.077.03v3.9h-.952v-3.9l-.089-.03h-1.547a1.392,1.392,0,0,1-.993-.982h6.2" transform="translate(-708.58 -543)"/></g></g><path class="aa" d="M646.889,569.2s0,12.321-2.844,17.533-19.425,2.38-19.425,2.38l3.314-17.533Z" transform="translate(-369.278 -261.932)"/><path class="ab" d="M626.463,601.908c2.5,2.38,12.857-2.38,12.143-5.212-.5-2-2.249-9.18-3.242-13.249l-.69-2.862s-6.068-1.9-8.21,0c-.779.69-1.327,3.409-1.583,6.693C624.441,592.984,624.887,600.4,626.463,601.908Z" transform="translate(-369.318 -266.202)"/><path class="ab" d="M666,396.772l16.581,12.791s24.637-1.422,18.479-13.267a44.169,44.169,0,0,1-4.759-16.742,34.994,34.994,0,0,1,0-6.479s-22.745-20.823-19.9,2.844a53.7,53.7,0,0,1,.393,5.473C677.131,399.158,666,396.772,666,396.772Z" transform="translate(-386.039 -179.06)"/><path class="h" d="M683.392,375.923a53.675,53.675,0,0,1,.393,5.473,15.528,15.528,0,0,0,8.609,2.582c4.242,0,7.365-4.129,10.185-6.872-.315-3.933.708-4.028.708-4.028S680.549,352.232,683.392,375.923Z" transform="translate(-392.984 -179.057)"/><circle class="ab" cx="15.635" cy="15.635" r="15.635" transform="translate(283.775 172.705)"/><path class="h" d="M708.725,394.38s2.606.238,7.818,7.342,16.581,8.056,16.581,8.056,4.266-1.9,9,19.425,6.158,35.536,3.79,37.9-11.845,5.694-16.6,5.694c0,0-1.422,29.848.946,35.06s-.476,8.531-.476,8.531l-20.823-1.422s-7.109-9-8.531-24.636-6.158-60.178-3.79-65.39,12.791-18.479,12.321-19.9S708.725,394.38,708.725,394.38Z" transform="translate(-398.184 -191.119)"/><path class="l" d="M709.432,394.14s3.5-.1,8.716,7.014,16.575,8.055,16.575,8.055,4.266-1.9,9,19.425,6.158,35.536,3.79,37.9-11.845,5.688-16.581,5.688c0,0-1.422,29.848.946,35.06s-.476,8.531-.476,8.531L710.58,514.4s-7.11-9-8.532-24.636-6.169-60.172-3.8-65.36,12.791-18.479,12.321-19.9S709.432,394.14,709.432,394.14Z" transform="translate(-398.837 -191.022)"/><path class="h" d="M625,587.269c2.267-1.731,6.544-4.426,10.483-3.831l-.69-2.862s-6.068-1.9-8.21,0C625.791,581.266,625.25,583.979,625,587.269Z" transform="translate(-369.431 -266.198)"/><path class="h" d="M659.968,399.16s-12.083,7.818-13.505,11.137-6.634,5.688-6.634,5.688-9.947,5.212-9.947,23.691l-5.212,26.058L648.361,498.9s2.844-33.168,4.266-41.223,3.314-23.2,3.314-23.2,7.11-9,6.158-11.369S659.968,399.16,659.968,399.16Z" transform="translate(-369.298 -193.055)"/><path class="l" d="M658.975,398.92s-12.6,7.014-14.017,10.328-6.634,5.688-6.634,5.688-9.948,5.212-9.948,23.69l-5.212,26.058-.946,49.749s8.531-8.055,14.689-4.266,9.947-12.321,9.947-12.321,2.844-33.168,4.266-41.223,3.314-23.2,3.314-23.2,7.109-9,6.158-11.369S658.975,398.92,658.975,398.92Z" transform="translate(-368.305 -192.958)"/><path class="h" d="M674.129,333.663a15.468,15.468,0,0,1,2.761-2.725c1.63-1.357,3.433-2.772,5.456-2.654a8.164,8.164,0,0,1,3.225,1.154q7.556,3.98,15.07,8.044a14.013,14.013,0,0,1,5.051,3.855,14.862,14.862,0,0,1,2.177,6.366,15.607,15.607,0,0,1,.214,4.652,5.837,5.837,0,0,1-2.059,3.909c-1.351.982-3.2.988-4.331,2.273a12.662,12.662,0,0,0-1.4,2.689c-.464.9-1.267,1.785-2.183,1.624a2.292,2.292,0,0,1-1.6-2.112,12.82,12.82,0,0,1,.172-2.975,7.044,7.044,0,0,0-1.083-5c-.714-.9-1.737-1.452-2.427-2.38-1.654-2.237-.9-5.949-2.713-8.049a4.3,4.3,0,0,0-4.165-1.19,17.8,17.8,0,0,0-4.165,1.785,30.936,30.936,0,0,1-5.706,2.2c-1.654.452-3.57,1.535-4.135-.666A14.669,14.669,0,0,1,674.129,333.663Z" transform="translate(-388.445 -164.344)"/><path class="ac" d="M674.927,332.874a15.469,15.469,0,0,1,2.761-2.725c1.63-1.357,3.433-2.772,5.456-2.653a8.163,8.163,0,0,1,3.225,1.154c5.033,2.653,9.216.143,15.07,8.044,1.249,1.69,3.76,2.058,5.051,3.855a14.862,14.862,0,0,1,2.177,6.366,15.605,15.605,0,0,1,.214,4.652,5.837,5.837,0,0,1-2.059,3.909c-1.35.982-3.2.988-4.331,2.273a12.666,12.666,0,0,0-1.4,2.689c-.464.9-1.267,1.785-2.183,1.624a2.292,2.292,0,0,1-1.6-2.112,12.819,12.819,0,0,1,.172-2.975,7.043,7.043,0,0,0-1.083-5c-.714-.9-1.737-1.452-2.427-2.38-1.654-2.237-.9-5.949-2.713-8.05a4.3,4.3,0,0,0-4.165-1.19,17.806,17.806,0,0,0-4.165,1.785,30.935,30.935,0,0,1-5.705,2.2c-1.654.452-3.57,1.535-4.135-.666A14.635,14.635,0,0,1,674.927,332.874Z" transform="translate(-388.767 -164.024)"/><path class="h" d="M742.177,458.09s6.318,16.111,1.577,22.745l-10.423-2.38s9.477,2.844,8.055-2.844S742.177,458.09,742.177,458.09Z" transform="translate(-413.311 -216.925)"/><path class="h" d="M742.063,523.708s-13.743.946-17.533-1.9a36.291,36.291,0,0,0,17.1,7.109Z" transform="translate(-409.747 -242.736)"/><path class="h" d="M649.958,474s-7.109,21.8-6.634,25.112,1.422,39.8,1.422,39.8l1.422-.476-.476-39.8Z" transform="translate(-376.844 -223.37)"/><path class="ad" d="M529.418,330.812,367,199.925a10.162,10.162,0,0,0-7.2-2.975h-6.9A88.051,88.051,0,1,0,337.651,212.2v6.9a10.162,10.162,0,0,0,2.975,7.2L503.044,357.18a10.114,10.114,0,0,0,14.362,0l11.97-11.958A10.215,10.215,0,0,0,529.418,330.812ZM283.428,196.951a22.461,22.461,0,1,1,0,.012Z" transform="translate(-195.43 -53.541)"/><path class="ae" d="M531.418,328.812,369,197.925a10.162,10.162,0,0,0-7.2-2.975h-6.9A88.051,88.051,0,1,0,339.651,210.2v6.9a10.162,10.162,0,0,0,2.975,7.2L505.044,355.18a10.114,10.114,0,0,0,14.362,0l11.97-11.958a10.215,10.215,0,0,0,.042-14.409ZM285.428,194.951a22.461,22.461,0,1,1,0,.012Z" transform="translate(-196.24 -52.73)"/><path class="ab" d="M724.418,486.458s-23.708-27.189-20.377-8.531c2.38,13.267,11.369,20.377,15.635,21.8S724.418,486.458,724.418,486.458Z" transform="translate(-401.318 -222.311)"/><path class="l" d="M737.425,454.51s.476,17.533,2.844,19.9-1.422,5.212-1.422,5.212l-9.477-2.38s2.38,15.635-7.58,13.743c0,0,6.634,6.158,13.267,7.11s6.158-1.422,6.158-1.422l9.947-11.845Z" transform="translate(-408.637 -215.475)"/><path class="l" d="M705.634,495.874l9.614-2.112-1.285-4.432-5.949-2.38-7.734,3.57Z" transform="translate(-374.223 -214.42)"/><path class="k" d="M280.78,172.262a40.265,40.265,0,0,0,8.079,24.262c.529.708,1.083,1.392,1.66,2.064.309.363.631.72.958,1.071q.244.274.5.535a39.69,39.69,0,0,0,4.319,3.921l.107.077a40.283,40.283,0,0,0,11.982,6.437l.541.173c.333.113.678.214,1.017.309l.137.042c.173.048.345.1.524.143a40.284,40.284,0,0,0,10.608,1.41c.595,0,1.22,0,1.826-.042a40.005,40.005,0,0,0,9.382-1.535h.06c.565-.167,1.124-.339,1.678-.53h.06l.506-.178a39.225,39.225,0,0,0,5.592-2.475l.113-.06c.2-.107.393-.214.595-.327a40.354,40.354,0,0,0,7.342-5.283l.2-.184a37.805,37.805,0,0,0,3.457-3.57l.125-.149c.1-.113.2-.226.292-.345.262-.309.512-.631.761-.952a40.456,40.456,0,1,0-72.416-24.815Z" transform="translate(-230.002 -84.764)"/><path class="af" d="M300.3,191.42s8.775-.744,12.8-6.324c3.921-5.432,6.586-5.5,6.717-5.5h0c.1-.726.173-1.416.22-2.059v-.089a1.19,1.19,0,0,1-.553.244c-.785.119-1.475-.625-1.868-1.416a11.048,11.048,0,0,0-1.19-2.344c-.97-1.118-2.558-1.124-3.712-1.975a5.1,5.1,0,0,1-1.785-3.4,9.362,9.362,0,0,1-.071-1.487,16.467,16.467,0,0,1,.25-3.171,13.062,13.062,0,0,1,1.868-5.539c1.1-1.553,3.254-1.886,4.325-3.355,5.015-6.878,8.591-4.694,12.9-7A6.914,6.914,0,0,1,332.966,147c1.731-.1,3.278,1.136,4.67,2.314a13.339,13.339,0,0,1,2.38,2.38,12.912,12.912,0,0,1,1.88,7.223,10.816,10.816,0,0,1-.274,2.826c-.345,1.368-1.279,1.279-2.3.97a12.363,12.363,0,0,1-4.2,15.516v.625a1.089,1.089,0,0,0,0,.137,28.175,28.175,0,0,0,.1,2.844c.1.054,9.721,5.509,10.81,8.1s5.122,4.462,5.122,4.462,4.432,2.38,6.544,9.852l-.125.149a38.162,38.162,0,0,1-3.457,3.641l-.2.19a40.38,40.38,0,0,1-7.342,5.354c-.19.113-.387.226-.595.333l-.113.06a38.9,38.9,0,0,1-5.592,2.517l-.506.184h-.059c-.553.2-1.113.369-1.678.535h-.06a39.4,39.4,0,0,1-9.382,1.559c-.595.03-1.19.042-1.826.042a39.651,39.651,0,0,1-10.578-1.374c-.178-.042-.351-.1-.524-.143l-.137-.042c-.339-.1-.684-.2-1.017-.315l-.541-.173a40.114,40.114,0,0,1-12-6.55l-.107-.077a39.942,39.942,0,0,1-4.319-3.986q-.256-.262-.5-.547c-.327-.357-.648-.72-.958-1.089-.595-.684-1.13-1.38-1.66-2.1C297.6,190.195,300.3,191.42,300.3,191.42Z" transform="translate(-235.527 -90.911)"/><path class="ab" d="M345.091,214.789l12.8-9.87s-8.573,1.838-8.329-11.863a1.055,1.055,0,0,1,0-.137,35.053,35.053,0,0,1,.3-4.087c2.2-18.283-15.355-2.2-15.355-2.2a26.177,26.177,0,0,1,0,4.867v.131a33.994,33.994,0,0,1-3.653,12.916C326.083,213.688,345.091,214.789,345.091,214.789Z" transform="translate(-249.972 -104.321)"/><path class="h" d="M339.138,188.963c2.172,2.112,3.5,5.949,6.764,5.949a11.988,11.988,0,0,0,6.646-1.993,35.059,35.059,0,0,1,.3-4.087c2.2-18.283-15.355-2.2-15.355-2.2S339.37,185.988,339.138,188.963Z" transform="translate(-252.973 -104.321)"/><circle class="ab" cx="12.065" cy="12.065" r="12.065" transform="translate(80.864 65.866)"/><path class="h" d="M351.224,154.61a13.241,13.241,0,0,0-2.38-2.332c-1.392-1.16-2.939-2.38-4.67-2.273a6.99,6.99,0,0,0-2.761.988c-4.313,2.273-7.889.125-12.9,6.883-1.071,1.446-3.219,1.785-4.325,3.3a12.656,12.656,0,0,0-1.868,5.45,13.364,13.364,0,0,0-.184,3.986,4.992,4.992,0,0,0,1.785,3.344c1.154.839,2.743.845,3.712,1.945a10.8,10.8,0,0,1,1.19,2.3c.393.773,1.083,1.505,1.868,1.392a1.926,1.926,0,0,0,1.368-1.785,10.978,10.978,0,0,0-.149-2.54,6.077,6.077,0,0,1,.928-4.284c.595-.779,1.487-1.243,2.076-2.035,1.416-1.91.773-5.117,2.326-6.889a3.683,3.683,0,0,1,3.57-.994,15.213,15.213,0,0,1,3.57,1.535,26.487,26.487,0,0,0,4.884,1.886c1.416.387,3.058,1.315,3.54-.595A12.574,12.574,0,0,0,351.224,154.61Z" transform="translate(-246.722 -92.13)"/><path class="ac" d="M351.224,153.61a13.242,13.242,0,0,0-2.38-2.332c-1.392-1.16-2.939-2.38-4.67-2.273a6.99,6.99,0,0,0-2.761.988c-4.313,2.273-7.889.125-12.9,6.883-1.071,1.446-3.219,1.785-4.325,3.3a12.656,12.656,0,0,0-1.868,5.45,13.363,13.363,0,0,0-.184,3.986,4.992,4.992,0,0,0,1.785,3.344c1.154.839,2.743.845,3.712,1.945a10.8,10.8,0,0,1,1.19,2.3c.393.773,1.083,1.505,1.868,1.392a1.926,1.926,0,0,0,1.368-1.785,10.978,10.978,0,0,0-.149-2.54,6.077,6.077,0,0,1,.928-4.284c.595-.779,1.487-1.243,2.076-2.035,1.416-1.91.773-5.117,2.326-6.889a3.683,3.683,0,0,1,3.57-.994,15.215,15.215,0,0,1,3.57,1.535,26.486,26.486,0,0,0,4.884,1.886c1.416.387,3.058,1.315,3.54-.595A12.574,12.574,0,0,0,351.224,153.61Z" transform="translate(-246.722 -91.725)"/><path class="h" d="M329.122,233.153l-.238,9.132a40.283,40.283,0,0,0,10.608,1.41c.595,0,1.22,0,1.826-.042a40,40,0,0,0,9.382-1.535h.06c.565-.167,1.124-.339,1.678-.53h.06l.506-.178a39.216,39.216,0,0,0,5.592-2.475l.113-.06c.2-.107.393-.214.595-.327l-.922-12.309,1.469-8.442-8.044-5.479a14.161,14.161,0,0,1-1.511,1.832,10.114,10.114,0,0,1-2.749,2.035c-5.771,2.844-12.339-1.678-15.605-4.474l-.744-.66c-.845-.767-1.327-1.291-1.327-1.291l-4.022,6.211Z" transform="translate(-248.258 -116.337)"/><path class="v" d="M329.122,234.153l-.238,9.132a40.281,40.281,0,0,0,10.608,1.41c.595,0,1.22,0,1.826-.042a40,40,0,0,0,9.382-1.535h.06c.565-.167,1.124-.339,1.678-.53h.06l.506-.178a39.22,39.22,0,0,0,5.592-2.475l.113-.06c.2-.107.393-.214.595-.327l-.922-12.309,1.469-8.442-8.044-5.479a14.164,14.164,0,0,1-1.511,1.832,10.113,10.113,0,0,1-2.749,2.035c-5.771,2.844-12.339-1.678-15.605-4.474l-.744-.66c-.845-.767-1.327-1.291-1.327-1.291l-4.022,6.211Z" transform="translate(-248.258 -116.742)"/><path class="ag" d="M294.36,225.305c.53.708,1.083,1.392,1.66,2.064.309.363.631.72.958,1.071q.244.274.5.535A39.687,39.687,0,0,0,301.8,232.9l.107.077a40.284,40.284,0,0,0,11.982,6.437l.541.173c.333.113.678.214,1.017.309l.137.042c.172.048.345.1.523.143a40.285,40.285,0,0,0,10.608,1.41c.595,0,1.22,0,1.826-.042.464-7.591.595-13.684-.131-15.248a24.56,24.56,0,0,0-1.469-2.63c-2.939-4.724-8.329-11.827-8.038-12.726a9.31,9.31,0,0,0,.244-1.339c.315-2.344.631-6.634.631-6.634h0c-.131,0-2.8.065-6.717,5.408-4.022,5.485-12.8,6.217-12.8,6.217S297.579,213.305,294.36,225.305Z" transform="translate(-235.503 -113.546)"/><path class="ag" d="M365.565,233.212s.44,3.5,1.017,7.693h.06l.506-.178a39.216,39.216,0,0,0,5.592-2.475l.113-.06c.2-.107.393-.214.595-.327a40.355,40.355,0,0,0,7.342-5.283l.2-.184a37.8,37.8,0,0,0,3.457-3.57l.125-.149c-2.124-7.371-6.544-9.692-6.544-9.692S374,217.154,372.9,214.6s-10.816-7.966-10.816-7.966v.042c0,.458-.155,4.652-.387,8.871-.149,2.743-.333,5.5-.547,7.246a8.462,8.462,0,0,1-.309,1.678C360.086,226.269,365.565,233.212,365.565,233.212Z" transform="translate(-262.403 -115.069)"/></svg>