<svg xmlns="http://www.w3.org/2000/svg" xmlns:xlink="http://www.w3.org/1999/xlink" width="393" height="598" viewBox="0 0 393 598"><defs><style>.a{opacity:0.5;}.b{fill:url(#a);}.c{fill:#fff;}.d{fill:url(#c);}.e{fill:#50812e;}.f{fill:#70ad47;}.g{fill:#b1d1a5;}.h{fill:#e0e0e0;}.i{fill:url(#g);}</style><linearGradient id="a" x1="0.5" y1="1" x2="0.5" gradientUnits="objectBoundingBox"><stop offset="0" stop-color="gray" stop-opacity="0.251"/><stop offset="0.54" stop-color="gray" stop-opacity="0.122"/><stop offset="1" stop-color="gray" stop-opacity="0.102"/></linearGradient><linearGradient id="c" xlink:href="#a"/><linearGradient id="g" xlink:href="#a"/></defs><g class="a" transform="translate(-244.5)"><rect class="b" width="393" height="543" transform="translate(244.5 55)"/></g><rect class="c" width="383" height="531" transform="translate(5 59)"/><rect class="b" width="190" height="46.02" transform="translate(102 44.98)"/><path class="d" d="M604.72,52.5c-14.67,0-26.56,12.18-26.56,27.2s11.89,27.2,26.56,27.2,26.56-12.18,26.56-27.2S619.39,52.5,604.72,52.5Zm0,42.89A15.69,15.69,0,1,1,620,79.7a15.51,15.51,0,0,1-15.28,15.69Z" transform="translate(-407.72 -52.5)"/><rect class="e" width="186" height="44" transform="translate(104 45)"/><path class="e" d="M604.72,54.5a26,26,0,1,0,26,26A26,26,0,0,0,604.72,54.5Zm0,41a15,15,0,1,1,15-15A15,15,0,0,1,604.72,95.5Z" transform="translate(-407.72 -52.5)"/><rect class="b" width="82" height="82" transform="translate(23 145)"/><rect class="b" width="82" height="82" transform="translate(23.28 307.5)"/><rect class="b" width="82" height="82" transform="translate(23.56 468)"/><rect class="f" width="76" height="76" transform="translate(26 148)"/><rect class="g" width="76" height="76" transform="translate(26 309)"/><rect class="g" width="76" height="76" transform="translate(26 470)"/><rect class="h" width="104.17" height="7.27" transform="translate(152 171.46)"/><rect class="h" width="172" height="7.27" transform="translate(152 182.37)"/><rect class="h" width="159.89" height="7.27" transform="translate(152 193.27)"/><rect class="h" width="104.17" height="7.27" transform="translate(152 332.46)"/><rect class="h" width="172" height="7.27" transform="translate(152 343.37)"/><rect class="h" width="159.89" height="7.27" transform="translate(152 354.27)"/><rect class="h" width="104.17" height="7.27" transform="translate(152 493.46)"/><rect class="h" width="172" height="7.27" transform="translate(152 504.37)"/><rect class="h" width="159.89" height="7.27" transform="translate(152 515.27)"/><path class="i" d="M291.25,181.47l13.8,12.66,19.55-28.75,6.9,5.75-26.45,34.5L285.5,183.78Z" transform="translate(-244.5)"/><path class="c" d="M293.5,182l12,11,17-25,6,5-23,30-17-19Z" transform="translate(-244.5)"/><path class="c" d="M293.5,344l12,11,17-25,6,5-23,30-17-19Z" transform="translate(-244.5)"/><path class="c" d="M293.5,506l12,11,17-25,6,5-23,30-17-19Z" transform="translate(-244.5)"/></svg>