<svg xmlns="http://www.w3.org/2000/svg" width="443.5" height="543.336" viewBox="0 0 443.5 543.336"><defs><style>.a{fill:#ffb8b8;}.b{fill:#3dbb02;}.c{fill:#5f5d7e;}.d{fill:#2f2e41;}.e{fill:#50812e;}.f{opacity:0.1;}.g{fill:#fff;}.h{fill:#3f3d56;}.i{fill:#70ad47;}.j{fill:#f2f2f2;}</style></defs><path class="a" d="M237.145,676.692h9.51l4.525-36.68H237.145Z" transform="translate(-53.196 -143.567)"/><path class="b" d="M548.14,783.065h18.728A11.949,11.949,0,0,1,578.8,795v.388H548.14Z" transform="translate(-366.616 -253.045)"/><path class="a" d="M79.05,654.976l8.152,4.9,22.77-29.11-12.031-7.229Z" transform="translate(-17.732 -139.871)"/><path class="b" d="M384.371,769.359l6.347-10.563,16.053,9.645a11.949,11.949,0,0,1,4.084,16.378l-.2.333Z" transform="translate(-329.88 -247.601)"/><path class="c" d="M513.983,731.642c-1.918-1.953-6.684-34.033-13.735-82.751-2.452-16.942-4.773-32.976-6.685-45.256-16.362,35.968-42.814,74.877-74.6,109.708l-.183.2-.251-.1a168.516,168.516,0,0,1-16.634-7.5c-1.366-.7-2.972-1.524-5.111-2.593l-.118-.092c-.982-1.122,7.978-15.994,39.305-66.564,13.647-22.029,27.759-44.808,37.1-60.622l.087-.147.168-.035c22.594-4.712,44.379.819,61.343,15.573l.138.12,0,.182c-.458,18.545-.073,47.664.266,73.356.662,50.161.619,64.815-.943,65.279l-.079.015c-2.29.188-4.191.376-5.943.549a127.7,127.7,0,0,1-13.845.8H514.1Z" transform="translate(-332.622 -206.203)"/><path class="d" d="M483.428,381.92c-3.2-13.218-5.913-28.126.124-40.3,4.189-8.447,19.686-11.291,28.569-8.248s15.306,11.3,18.131,20.3,2.5,18.7,1.265,28.06C515.179,381.418,498.841,381.1,483.428,381.92Z" transform="translate(-351.322 -151.904)"/><circle class="a" cx="19.052" cy="19.052" r="19.052" transform="translate(140.624 191.909)"/><path class="d" d="M489.947,359.626a23.929,23.929,0,1,1,47.83.63C521.471,360.292,505.164,360.326,489.947,359.626Z" transform="translate(-353.562 -152.59)"/><path class="e" d="M559.259,560.755c-3.513-11.985-5.263-20.373-7.284-30.061-2.77-13.28-5.91-28.331-14.56-57.635l-.021-.072.007-.075c2.449-25.415-8.227-52.384-27.862-70.384a6.8,6.8,0,0,0-9.28.47c-11.047,12.4-17.989,24.024-21.223,35.523l-.07.249c4.612,14.839,9.773,29.752,14.766,44.18l.072.206-.14.168c-18.694,22.508-29.033,52.595-28.41,82.626a166.5,166.5,0,0,1,55.676-9.321,180.392,180.392,0,0,1,38.287,4.117Z" transform="translate(-348.017 -167.323)"/><path class="f" d="M186.941,382.463l28.139,61.261,16.075-16.271Z" transform="translate(-41.935 -85.794)"/><path class="e" d="M669.591,162.216c.268-34.271-22.088-62.229-49.933-62.446s-50.635,27.388-50.9,61.659c-.243,31.07,18.11,56.951,42.29,61.676l-1.669,10.006,18.479.144-1.513-10.031C650.594,218.877,669.348,193.286,669.591,162.216Z" transform="translate(-371.241 -99.768)"/><path class="g" d="M588.115,188.975l-6.981-.055a113.631,113.631,0,0,1,.309-39.559l6.981.055A87.433,87.433,0,0,0,588.115,188.975Z" transform="translate(-373.662 -110.893)"/><rect class="h" width="20.943" height="4.654" transform="translate(236.983 123.25) rotate(0.447)"/><path class="i" d="M794.688,185.588c2.713-34.164-17.59-63.647-45.348-65.851s-52.461,23.7-55.174,57.868c-2.46,30.974,14,58.1,37.78,64.538L729.566,252l18.421,1.463-.793-10.113C771.694,240.749,792.228,216.562,794.688,185.588Z" transform="translate(-399.318 -104.218)"/><path class="g" d="M712.342,205.489l-6.959-.553a113.634,113.634,0,0,1,3.132-39.436l6.959.553A87.433,87.433,0,0,0,712.342,205.489Z" transform="translate(-401.772 -114.513)"/><rect class="h" width="20.943" height="4.654" transform="matrix(0.997, 0.079, -0.079, 0.997, 329.818, 137.635)"/><rect class="h" width="291.763" height="2.327" transform="matrix(0.522, -0.853, 0.853, 0.522, 187.107, 388.216)"/><path class="e" d="M846.366,223.817c16.125-30.241,9.278-65.378-15.293-78.479s-57.562.793-73.687,31.034c-14.619,27.417-10.356,58.857,8.878,74.254l-6.118,8.092,16.306,8.695,3.31-9.589C803.264,265.214,831.746,251.234,846.366,223.817Z" transform="translate(-411.596 -108.884)"/><path class="g" d="M767.661,204.61l-6.16-3.285a113.634,113.634,0,0,1,18.613-34.907l6.16,3.285A87.432,87.432,0,0,0,767.661,204.61Z" transform="translate(-414.478 -114.719)"/><rect class="h" width="20.943" height="4.654" transform="translate(352.209 140.359) rotate(28.067)"/><rect class="h" width="291.763" height="2.327" transform="matrix(0.588, -0.809, 0.809, 0.588, 187.309, 383.418)"/><rect class="h" width="291.763" height="2.327" transform="translate(197.714 412.758) rotate(-79.929)"/><path class="a" d="M573.2,557.335a7.8,7.8,0,0,1-7.024-9.681l-23.186-15.191,13.223-5.713,19.99,15.3a7.842,7.842,0,0,1-3,15.283Z" transform="translate(-365.462 -195.549)"/><path class="i" d="M540.438,518.475c-13.865-15.951-28.2-32.445-41.255-49.028l-.084-.111V469.2c.06-13.541.121-27.54,1.725-43.2a12.4,12.4,0,0,1-3.286-10.152,13.746,13.746,0,0,1,6.036-10.265c6.533-4.127,16.322-1.893,20.949,4.783,4.467,6.444,3.814,15.676.406,20.326l-3.774,29.594-.334-.026.074.038.026-.022.049.059.115.059c-.006.012-.014.03-.023.054,12.244,14.949,24.9,30.4,37.546,45.2l.28.328-.356.244c-5.924,4.062-12.05,8.262-17.568,12.323l-.292.207Z" transform="translate(-355.241 -167.902)"/><path class="e" d="M610.432,799.783H314.9a.776.776,0,1,1,0-1.551H610.432a.776.776,0,1,1,0,1.551Z" transform="translate(-314.122 -256.447)"/><path class="j" d="M492.715,480.274Z" transform="translate(-110.526 -107.735)"/><path class="j" d="M837.541,587.28l-.469,1.479-29.226-9.274c2.591,3.423,11.273,14.112,20.294,16.469,10.777,2.815,16.326-1.12,17.951-7.337s-1.293-12.363-12.07-15.178c-9.135-2.386-22.148,2.853-25.9,4.505Z" transform="translate(-424.873 -205.884)"/><path class="j" d="M350.832,578.731h0Z" transform="translate(-78.698 -129.82)"/><path class="j" d="M664.694,710.385l-1.55.078-1.55-30.623c-2.3,3.626-9.27,15.5-8.318,24.776,1.138,11.08,6.767,14.9,13.159,14.244s11.127-5.541,9.989-16.621c-.965-9.392-10.43-19.746-13.292-22.683Z" transform="translate(-390.181 -229.826)"/><path class="j" d="M63.981,131.667Z" transform="translate(-14.352 -29.535)"/><path class="j" d="M341.872,205.271l.924-1.246,24.627,18.267c-1.338-4.079-6.076-17.01-13.841-22.169-9.277-6.164-15.8-4.246-19.36,1.106s-2.795,12.112,6.483,18.276c7.864,5.225,21.873,4.5,25.96,4.156Z" transform="translate(-318.189 -121.419)"/></svg>