<svg xmlns="http://www.w3.org/2000/svg" width="663" height="371" viewBox="0 0 663 371"><defs><style>.a{opacity:0.8;}.b{fill:#fff;}</style></defs><g transform="translate(0 -0.215)"><rect class="a" width="663" height="371" rx="26" transform="translate(0 0.215)"/><g transform="translate(274.478 128.19)"><path class="b" d="M57.217,0a57.217,57.217,0,1,0,57.217,57.217A57.281,57.281,0,0,0,57.217,0Zm0,109.667a52.449,52.449,0,1,1,52.449-52.449A52.509,52.509,0,0,1,57.217,109.667Z"/><path class="b" d="M229.051,171.168l-33.377-21.457a2.384,2.384,0,0,0-3.674,2v42.913a2.384,2.384,0,0,0,3.674,2l33.377-21.457a2.383,2.383,0,0,0,0-4.009Zm-32.283,19.093V156.083l26.583,17.089Z" transform="translate(-149.087 -115.955)"/></g></g></svg>